<?xml version="1.0" standalone="no"?>
<!DOCTYPE svg PUBLIC "-//W3C//DTD SVG 1.1//EN" "http://www.w3.org/Graphics/SVG/1.1/DTD/svg11.dtd" >
<svg xmlns="http://www.w3.org/2000/svg" xmlns:xlink="http://www.w3.org/1999/xlink" version="1.1">
<metadata></metadata>
<defs>
<font id="epiloguelight" horiz-adv-x="1190" >
<font-face units-per-em="2048" ascent="1638" descent="-410" />
<missing-glyph horiz-adv-x="512" />
<glyph unicode="&#xfb01;" horiz-adv-x="1289" d="M52 976v111h242v151q0 61 12.5 117.5t39 104t67 82.5t96.5 54.5t128 19.5q44 0 72.5 -5.5t39.5 -11.5v-111q-13 4 -41 9t-60 5q-73 0 -118 -24.5t-69 -65.5t-32 -91.5t-8 -102.5v-131h321v-111h-321v-976h-127v976h-242zM947 1447q0 38 28.5 61t68.5 23q39 0 67.5 -23 t28.5 -61q0 -39 -28.5 -62t-67.5 -23q-40 0 -68.5 23t-28.5 62zM980 0v1087h125v-1087h-125z" />
<glyph unicode="&#xfb02;" horiz-adv-x="1290" d="M52 976v111h242v151q0 61 12.5 117.5t39 104t67 82.5t96.5 54.5t128 19.5q44 0 72.5 -5.5t39.5 -11.5v-111q-13 4 -41 9t-60 5q-73 0 -118 -24.5t-69 -65.5t-32 -91.5t-8 -102.5v-131h321v-111h-321v-976h-127v976h-242zM986 0v1601h125v-1601h-125z" />
<glyph horiz-adv-x="0" />
<glyph horiz-adv-x="682" />
<glyph unicode="&#xd;" horiz-adv-x="964" />
<glyph unicode=" "  horiz-adv-x="512" />
<glyph unicode="&#x09;" horiz-adv-x="512" />
<glyph unicode="&#xa0;" horiz-adv-x="512" />
<glyph unicode="!" horiz-adv-x="582" d="M136 77q0 43 30 72.5t73 29.5t72.5 -29.5t29.5 -72.5t-29.5 -73t-72.5 -30t-73 30t-30 73zM175 1508h128l-20 -1175h-86z" />
<glyph unicode="&#x22;" horiz-adv-x="761" d="M140 1510h118l-19 -395h-79zM426 1510h117l-20 -395h-79z" />
<glyph unicode="#" horiz-adv-x="1720" d="M71 487l20 86h1392l-21 -86h-1391zM160 936l20 85h1392l-21 -85h-1391zM310 0l375 1510h117l-375 -1510h-117zM839 0l373 1510h117l-375 -1510h-115z" />
<glyph unicode="$" horiz-adv-x="1104" d="M109 512v19v17h127v-14v-17q3 -94 86.5 -146t230.5 -52q94 0 166 21t112 62.5t40 101.5q0 99 -85.5 141.5t-250.5 71.5q-85 14 -160 37t-131 58.5t-87 88.5t-31 128q0 95 57.5 161.5t153.5 101.5t213 35q116 0 212.5 -35.5t155 -105t58.5 -175.5v-10.5v-12.5h-126v9.5 v9.5q0 75 -42 119.5t-109.5 65.5t-145.5 21q-76 0 -145 -18t-113 -57.5t-44 -104.5t41 -104t115.5 -63t175.5 -43q90 -16 165.5 -39t131 -58t86 -87.5t30.5 -128.5q0 -75 -33.5 -131.5t-94.5 -95.5t-142 -58.5t-175 -19.5q-98 0 -179 20.5t-139.5 60t-90 96t-33.5 130.5z M500 0v1510h93v-1510h-93z" />
<glyph unicode="%" d="M16 105l1095 1376l53 -46l-1095 -1376zM66 1240q0 79 37 133.5t97.5 83.5t129.5 29q68 0 129 -29t100 -83.5t39 -133.5q0 -78 -39 -133t-100 -84t-129 -29q-69 0 -129.5 29t-97.5 84t-37 133zM133 1240q0 -61 28.5 -102t74 -62t94.5 -21q48 0 94 21t75.5 62t29.5 102 t-29.5 102.5t-75.5 62.5t-94 21q-49 0 -94.5 -21t-74 -62t-28.5 -103zM589 274q0 79 37.5 134t97.5 84t129 29q68 0 129 -29t100 -84t39 -134q0 -78 -39 -132.5t-100 -83.5t-129 -29q-69 0 -129 29t-97.5 84t-37.5 132zM656 274q0 -60 29 -101.5t74 -62.5t94 -21q48 0 94 21 t76 62.5t30 101.5q0 61 -30 103t-76 63t-94 21q-49 0 -94 -21t-74 -62.5t-29 -103.5z" />
<glyph unicode="&#x26;" horiz-adv-x="1425" d="M88 361q0 106 55.5 192t157 163t240.5 154q140 81 210.5 171.5t70.5 194.5q0 70 -30 114t-78.5 65.5t-102.5 21.5q-51 0 -102.5 -21t-86 -64.5t-34.5 -113.5q0 -87 49.5 -172.5t142.5 -204.5l543 -697q37 -47 64.5 -62.5t46.5 -15.5q15 0 28 3t18 5v-93q-4 -1 -21.5 -5 t-43.5 -4q-36 0 -74 20t-81 74l-565 718q-55 71 -105 141.5t-80.5 143.5t-30.5 153q0 89 47 152t122.5 97t161.5 34q88 0 160.5 -33.5t115.5 -96.5t43 -153q0 -94 -41 -173.5t-116.5 -146.5t-176.5 -126q-183 -105 -285.5 -202t-102.5 -228q0 -84 48.5 -149.5t131.5 -103 t186 -37.5q161 0 264.5 43t170.5 117q80 87 115.5 205t35.5 244h108q0 -110 -22.5 -206t-64.5 -175.5t-100 -140.5q-74 -77 -197.5 -129t-308.5 -52q-140 0 -250 46t-173 130.5t-63 202.5z" />
<glyph unicode="'" horiz-adv-x="299" d="M88 1510h123l-22 -395h-80z" />
<glyph unicode="(" horiz-adv-x="759" d="M196 588q0 201 32 362t83 284t108 209.5t106.5 138t78.5 71.5l70 -73q-36 -28 -97 -100.5t-123 -194t-104 -295t-42 -402.5q0 -230 42 -403t104 -293t123 -193t97 -105l-70 -72q-29 23 -78.5 75.5t-106.5 139t-108 208.5t-83 282t-32 361z" />
<glyph unicode=")" horiz-adv-x="763" d="M95 -406q37 32 97.5 105t122.5 193t104 292.5t42 403.5q0 229 -42 402.5t-104 295t-122.5 194t-97.5 100.5l70 73q29 -19 78.5 -71t106.5 -138.5t108 -209.5t83 -284.5t32 -361.5q0 -201 -32 -361t-83 -282t-108 -208.5t-106.5 -139t-78.5 -75.5z" />
<glyph unicode="*" horiz-adv-x="956" d="M140 1323l33 60l238 -90l-2 229h75l-3 -229l238 90l34 -60l-244 -85l169 -202l-63 -41l-169 217l-170 -217l-62 41l169 202z" />
<glyph unicode="+" d="M213 496v85h336v274h88v-274h336v-85h-336v-275h-88v275h-336z" />
<glyph unicode="," horiz-adv-x="528" d="M137 74q0 48 34 75.5t86 27.5q57 0 90 -34t33 -98q0 -65 -32 -127t-79.5 -109.5t-93.5 -66.5l-22 40q32 15 68 51t61.5 80.5t25.5 85.5q0 8 -2 16.5t-5 15.5h38q-11 -29 -39 -43t-55 -14q-44 0 -76 26t-32 74z" />
<glyph unicode="-" horiz-adv-x="978" d="M95 539v82h703v-82h-703z" />
<glyph unicode="." horiz-adv-x="502" d="M148 77q0 43 30 72.5t73 29.5t72.5 -29.5t29.5 -72.5t-29.5 -73t-72.5 -30t-73 30t-30 73z" />
<glyph unicode="/" horiz-adv-x="923" d="M49 -159l671 1760h110l-670 -1760h-111z" />
<glyph unicode="0" horiz-adv-x="1144" d="M129 752q0 162 24 302.5t76.5 246.5t135 166t199.5 60q118 0 201 -60t134.5 -166t75.5 -247t24 -302q0 -162 -24 -302.5t-75.5 -246t-134.5 -164t-201 -58.5q-117 0 -199.5 58.5t-135 164t-76.5 246t-24 302.5zM258 752q0 -205 33 -353t101 -227.5t172 -79.5 q105 0 173 79.5t100.5 227.5t32.5 353t-32.5 353t-100 228t-173.5 80q-104 0 -172 -80t-101 -228.5t-33 -352.5z" />
<glyph unicode="1" horiz-adv-x="817" d="M144 1285v115q69 11 127.5 31t99.5 43t54 43h124v-1517h-127v1374q-8 -11 -48 -29t-99.5 -35t-130.5 -25z" />
<glyph unicode="2" horiz-adv-x="1130" d="M138 1050q0 140 44.5 248t138 168.5t238.5 60.5q130 0 217.5 -52.5t132 -146t44.5 -220.5q0 -82 -31 -158.5t-81 -145.5t-108.5 -129t-111.5 -109q-84 -79 -159 -158t-123 -154t-55 -138h686v-116h-829v110q5 58 41 124t90 134.5t116.5 133.5t121.5 121q74 70 146 146 t120 161t48 179q0 145 -67.5 224.5t-199.5 79.5q-105 0 -169.5 -46.5t-93.5 -128.5t-29 -188h-127z" />
<glyph unicode="3" horiz-adv-x="1134" d="M145 452v2v2h127v-2v-2q0 -136 35 -214.5t100.5 -112t157.5 -33.5q128 0 201.5 91t73.5 266q0 53 -11 104.5t-39.5 93.5t-82.5 67t-140 25h-58v105h58q83 0 136.5 24t83 64.5t41.5 89.5t12 98q0 150 -73 221.5t-199 71.5q-136 0 -216 -76.5t-80 -261.5h-127 q0 103 26.5 187t79 143t131.5 90.5t184 31.5q135 0 224.5 -51t133.5 -141.5t44 -209.5q0 -83 -24 -157t-79.5 -121t-148.5 -51q93 -3 148.5 -52t79.5 -127t24 -172q0 -134 -44 -239t-134 -165t-226 -60q-112 0 -191 30t-129 90t-74.5 148t-24.5 203z" />
<glyph unicode="4" horiz-adv-x="1103" d="M79 356v103l542 1058h173v-1048h211v-113h-211v-356h-125v356h-590zM147 469h522v953l31 -7l-510 -1014z" />
<glyph unicode="5" horiz-adv-x="1131" d="M139 416v1.5v1.5h126v-1.5v-1.5q1 -170 77.5 -247t207.5 -77q85 0 149 42t100 129.5t36 223.5q0 186 -68.5 281t-191.5 95q-81 0 -141.5 -33t-100 -80t-55.5 -87l-123 31l87 816h685v-111h-577l-57 -574q3 12 22.5 37t57.5 51t93.5 44t129.5 18q176 0 272 -129t96 -357 q0 -170 -51 -283t-143.5 -169t-220.5 -56q-102 0 -179.5 30.5t-128.5 88t-76.5 137t-25.5 179.5z" />
<glyph unicode="6" horiz-adv-x="1140" d="M153 612q0 258 32 434t90.5 282t135.5 152.5t168 46.5q102 0 168.5 -38.5t104 -98t53 -123t15.5 -113.5v-1v-2h-120v2v1q0 41 -10.5 86t-35.5 85t-67.5 64.5t-107.5 24.5q-86 0 -153.5 -71t-107 -240t-43.5 -464l-60 -9q4 100 56.5 175.5t137 117.5t183.5 42 q123 0 209 -62.5t130.5 -171t44.5 -248.5q0 -148 -47.5 -261.5t-139.5 -177t-226 -63.5q-137 0 -228 78t-136.5 220t-45.5 333zM281 512q0 -116 32 -211.5t96 -152t155 -56.5q94 0 156.5 48t95 134t32.5 201q0 108 -30.5 193.5t-89.5 135t-146 49.5q-88 0 -156.5 -42.5 t-106.5 -119t-38 -179.5z" />
<glyph unicode="7" horiz-adv-x="1012" d="M102 1396v114h839v-109q-124 -89 -206 -216t-131.5 -276.5t-74 -307.5t-33 -312t-8.5 -289h-128q0 145 10 302.5t35.5 315.5t73.5 303.5t125 268.5t189 208v-2h-691z" />
<glyph unicode="8" horiz-adv-x="1214" d="M152 414q0 119 40 198.5t103.5 125t132.5 61.5q-57 12 -113 53.5t-92.5 114.5t-36.5 181q0 120 57 204.5t151.5 129.5t209.5 45t210 -45t151.5 -129.5t56.5 -204.5q0 -106 -36.5 -180t-91.5 -115.5t-114 -53.5q69 -15 132.5 -61t104 -126t40.5 -198q0 -133 -56 -230.5 t-158 -150t-239 -52.5t-239 52.5t-157.5 150t-55.5 230.5zM282 411q0 -108 43.5 -178.5t116.5 -105.5t162 -35t162.5 35t117 105.5t43.5 178.5q0 97 -40 171.5t-113 117t-170 42.5t-170 -42.5t-112.5 -117t-39.5 -171.5zM311 1140q0 -129 79 -208.5t214 -79.5 q134 0 213.5 79.5t79.5 208.5q0 96 -41.5 156.5t-108.5 88.5t-143 28t-143 -28t-108.5 -88.5t-41.5 -156.5z" />
<glyph unicode="9" horiz-adv-x="1129" d="M148 1025q0 150 48 263t140 176.5t225 63.5q137 0 229 -78.5t137 -220.5t45 -333q0 -258 -32.5 -433.5t-90 -281.5t-135.5 -152.5t-168 -46.5q-102 0 -169 38t-104 97.5t-52.5 123t-15.5 113.5v1.5v1.5h121v-1.5v-1.5q0 -41 10 -86t34.5 -85t67.5 -64.5t109 -24.5 q86 0 153 71.5t106.5 240.5t42.5 463l60 10q-4 -99 -55.5 -175t-135.5 -118t-186 -42q-123 0 -208 62.5t-130.5 171t-45.5 247.5zM276 1033q0 -108 30.5 -193t90.5 -135t146 -50q89 0 157 42.5t106.5 119.5t38.5 179q0 117 -33 212.5t-96.5 151.5t-155.5 56q-93 0 -156 -48 t-95.5 -133.5t-32.5 -201.5z" />
<glyph unicode=":" horiz-adv-x="503" d="M148 77q0 43 30 72.5t73 29.5t72.5 -29.5t29.5 -72.5t-29.5 -73t-72.5 -30t-73 30t-30 73zM149 923q0 43 30 72.5t73 29.5t72.5 -29.5t29.5 -72.5t-29.5 -73t-72.5 -30t-73 30t-30 73z" />
<glyph unicode=";" horiz-adv-x="540" d="M149 72q0 48 34 75.5t86 27.5q57 0 90 -34t33 -98q0 -65 -32 -127t-79.5 -109.5t-93.5 -66.5l-22 40q32 15 68 51t61.5 80.5t25.5 85.5q0 8 -2 16.5t-5 15.5h38q-11 -29 -39 -43t-55 -14q-44 0 -76 26t-32 74zM149 923q0 43 30 72.5t73 29.5t72.5 -29.5t29.5 -72.5 t-29.5 -73t-72.5 -30t-73 30t-30 73z" />
<glyph unicode="&#x3c;" d="M279 494v100l628 449v-117l-564 -390v16l564 -389v-118z" />
<glyph unicode="=" d="M238 332v84h712v-84h-712zM238 669v84h712v-84h-712z" />
<glyph unicode="&#x3e;" d="M280 45v118l564 389v-16l-564 390v117l628 -449v-100z" />
<glyph unicode="?" horiz-adv-x="1120" d="M103 1075q0 147 53.5 246.5t147.5 150t218 50.5t216.5 -50t144 -145.5t51.5 -234.5q0 -95 -29 -169t-75.5 -132.5t-95.5 -111.5q-69 -75 -123 -154.5t-54 -192.5h-104q0 91 28 161.5t72 129t91 112.5q45 51 85 105t65 116.5t25 141.5q0 155 -74.5 236t-222.5 81 q-150 0 -226.5 -88t-76.5 -252h-116zM411 77q0 43 30 72.5t73 29.5q42 0 72 -29.5t30 -72.5t-30 -73t-72 -30q-43 0 -73 30t-30 73z" />
<glyph unicode="@" horiz-adv-x="1965" d="M100 690q0 171 68.5 321t192.5 264.5t296.5 178.5t381.5 64q171 0 308 -48t233.5 -135t148.5 -203.5t52 -252.5q0 -116 -33.5 -219t-100 -182t-167.5 -123.5t-236 -44.5q-38 0 -80 8t-70.5 32t-28.5 71v3.5v2.5q-29 -54 -93.5 -82t-148.5 -28q-99 0 -166.5 43 t-101.5 122.5t-34 188.5q0 148 60 262.5t163.5 179.5t233.5 65q92 0 151 -37.5t59 -84.5l25 99h94l-160 -660q-1 -5 -2 -13t-1 -11q0 -51 39.5 -69.5t84.5 -18.5q122 0 202 45t126 118.5t65.5 161t19.5 173.5q0 170 -81 297t-227.5 197.5t-341.5 70.5q-187 0 -339.5 -59 t-263 -163t-169 -241.5t-58.5 -294.5q0 -194 84.5 -333.5t238 -214.5t361.5 -75q114 0 224 14t209.5 43t180.5 72l55 -64q-83 -45 -190.5 -75.5t-230 -46t-251.5 -15.5q-243 0 -418 85t-269.5 241.5t-94.5 370.5zM618 667q0 -132 58.5 -204.5t163.5 -72.5q96 0 149.5 39 t73.5 117q1 3 10 41t22.5 93t27 111t22.5 96.5t11 47.5q3 20 3 38q0 58 -41.5 96t-132.5 38q-102 0 -185.5 -58.5t-132.5 -157.5t-49 -224z" />
<glyph unicode="A" horiz-adv-x="1234" d="M92 0l429 1516h196l426 -1516h-132l-394 1428h3l-396 -1428h-132zM289 421v111h660v-111h-660z" />
<glyph unicode="B" horiz-adv-x="1228" d="M156 0v1510h470q134 0 230.5 -36t149 -115.5t52.5 -205.5q0 -118 -48.5 -196.5t-125 -118.5t-160.5 -43q92 -2 175.5 -40.5t137 -121t53.5 -218.5q0 -135 -54.5 -228t-159.5 -140t-261 -47h-459zM222 112h370q168 0 267.5 74.5t99.5 234.5q0 95 -33 156t-90.5 95.5 t-130 48t-150.5 13.5h-319l44 43v-736zM222 1399l58 70v-667l-44 44h313q178 0 279.5 71t101.5 219q0 99 -42 156.5t-117.5 82t-173.5 24.5h-375z" />
<glyph unicode="C" horiz-adv-x="1326" d="M109 755q0 228 68 402t198 272t314 98q155 0 264 -65t173 -165.5t82 -205.5q9 -48 10 -93h-127q0 28 -6 65q-13 90 -62.5 169.5t-133 129.5t-200.5 50q-136 0 -237.5 -77.5t-157.5 -223.5t-56 -356q0 -209 56 -357t157.5 -225.5t237.5 -77.5q97 0 172 37t126 98 t77.5 134.5t26.5 147.5h127q0 -89 -33 -182t-98.5 -172.5t-165 -128t-232.5 -48.5q-184 0 -314 98t-198 273t-68 403z" />
<glyph unicode="D" horiz-adv-x="1256" d="M156 0v1510h342q150 0 269.5 -51t204.5 -148.5t130.5 -237.5t45.5 -318q0 -177 -45.5 -317.5t-130.5 -238t-205 -148.5t-269 -51h-342zM227 112h257q160 0 280.5 77t187.5 221.5t67 344.5q0 202 -67 345.5t-187.5 221t-280.5 77.5h-257l58 70v-1428z" />
<glyph unicode="E" horiz-adv-x="1105" d="M156 0v1510h794v-111h-725l58 70v-700l-33 45h607v-113h-607l33 45v-705l-58 71h725v-112h-794z" />
<glyph unicode="F" horiz-adv-x="1044" d="M156 0v1510h784v-111h-715l58 70v-708l-43 42h609v-112h-609l43 43v-734h-127z" />
<glyph unicode="G" horiz-adv-x="1373" d="M109 755q0 241 79 413.5t216.5 265.5t310.5 93q138 0 233 -48.5t155 -126t87.5 -164.5t27.5 -164v-6v-6h-124v6v6q0 66 -21.5 134.5t-68 125t-118 92t-171.5 35.5q-135 0 -244 -76.5t-171.5 -222.5t-62.5 -357q0 -161 34.5 -284.5t97 -207t147.5 -126t184 -42.5 q129 0 211.5 42t127.5 104t59 118v233h-393v106h508v-698h-97l-6 179q-9 -20 -36.5 -53t-77 -66t-124 -56t-174.5 -23q-167 0 -300.5 93t-211 266t-77.5 415z" />
<glyph unicode="H" horiz-adv-x="1284" d="M156 0v1510h127v-768l-58 67h833l-58 -67v768h127v-1510h-127v760l58 -64h-833l58 64v-760h-127z" />
<glyph unicode="I" horiz-adv-x="466" d="M171 0v1510h125v-1510h-125z" />
<glyph unicode="J" horiz-adv-x="1090" d="M97 468v28.5v27.5h125v-19.5v-22.5q0 -115 30.5 -201.5t95 -136t168.5 -49.5q102 0 167 49.5t95.5 139.5t30.5 213v1013h126v-1029q0 -110 -23.5 -201.5t-73.5 -158.5t-129.5 -103.5t-192.5 -36.5q-146 0 -238.5 60.5t-136.5 170.5t-44 256z" />
<glyph unicode="K" horiz-adv-x="1160" d="M156 0v1510h128v-845l-27 25l638 820h140l-565 -735l3 99l604 -874h-144l-540 774l66 -8l-192 -247l17 85v-604h-128z" />
<glyph unicode="L" horiz-adv-x="989" d="M156 0v1510h127v-1469l-58 71h666v-112h-735z" />
<glyph unicode="M" horiz-adv-x="1606" d="M174 0v1510h217l414 -1413h-4l414 1413h218v-1510h-121v1409l4 -2l-420 -1407h-184l-421 1408l4 2v-1410h-121z" />
<glyph unicode="N" horiz-adv-x="1337" d="M156 0v1510h206l707 -1436l-11 -6v1442h124v-1510h-210l-705 1435l13 6v-1441h-124z" />
<glyph unicode="O" horiz-adv-x="1397" d="M109 757q0 183 43.5 326t122.5 242t187 150.5t236 51.5q129 0 237 -51.5t187.5 -150.5t123 -242t43.5 -326q0 -182 -43.5 -326.5t-123 -244.5t-187.5 -152.5t-237 -52.5t-236.5 52.5t-186.5 152.5t-122.5 244t-43.5 327zM237 757q0 -214 59 -361.5t163.5 -224 t238.5 -76.5q136 0 240 77t163 224.5t59 360.5q0 214 -59.5 360t-163 220.5t-239.5 74.5q-134 0 -238.5 -74.5t-163.5 -220.5t-59 -360z" />
<glyph unicode="P" horiz-adv-x="1150" d="M156 0v1510h393q175 0 288 -64.5t168 -172t55 -239.5q0 -131 -56.5 -241.5t-170 -177.5t-284.5 -67h-266v-548h-127zM225 659h306q137 0 226 49t132 133.5t43 192.5q0 110 -41 192t-129 127.5t-231 45.5h-306l58 70v-874z" />
<glyph unicode="Q" horiz-adv-x="1397" d="M109 757q0 183 43.5 326t122.5 242t187 150.5t236 51.5q129 0 237 -51.5t187.5 -150.5t123 -242t43.5 -326q0 -182 -43.5 -326.5t-123 -244.5t-187.5 -152.5t-237 -52.5t-236.5 52.5t-186.5 152.5t-122.5 244t-43.5 327zM237 757q0 -214 59 -361.5t163.5 -224 t238.5 -76.5q136 0 240 77t163 224.5t59 360.5q0 214 -59.5 360t-163 220.5t-239.5 74.5q-134 0 -238.5 -74.5t-163.5 -220.5t-59 -360zM642 -2h114q0 -67 36.5 -113.5t89.5 -76t100.5 -45t68.5 -19.5l-41 -89q-18 4 -61.5 15.5t-95.5 34.5t-100 61t-79.5 95t-31.5 137z" />
<glyph unicode="R" horiz-adv-x="1200" d="M156 0v1510h495q198 0 303.5 -95t105.5 -296q0 -123 -46 -208t-109.5 -131.5t-116.5 -52.5q53 -4 106.5 -29.5t89.5 -79t36 -141.5v-181v-182q0 -42 6.5 -73.5t13.5 -40.5h-128q-6 10 -12.5 40.5t-6.5 73.5v173v173q0 109 -69 159t-190 50h-391l38 49v-718h-125z M240 1399l41 55v-726l-38 53h393q80 0 146.5 40.5t107 114.5t40.5 173q0 156 -79 223t-229 67h-382z" />
<glyph unicode="S" horiz-adv-x="1172" d="M109 424v37v37h127v-35.5v-36.5q0 -173 89.5 -252t259.5 -79q176 0 265 66.5t89 204.5q0 95 -47 158t-132 106t-199 79q-130 42 -229.5 99.5t-155.5 142.5t-56 208q0 120 56 202t159 124t242 42q147 0 254 -45.5t164.5 -138.5t57.5 -235v-41.5v-41.5h-127v39v39 q0 166 -90 237.5t-257 71.5q-160 0 -247.5 -61.5t-87.5 -191.5q0 -96 51.5 -159.5t140.5 -107.5t203 -82q134 -44 229.5 -99t145.5 -136t50 -204t-56.5 -210.5t-162.5 -133.5t-257 -46q-155 0 -262 49t-162 147.5t-55 246.5z" />
<glyph unicode="T" horiz-adv-x="1120" d="M92 1399v111h935v-111h-435l31 70v-1469h-126v1469l37 -70h-442z" />
<glyph unicode="U" horiz-adv-x="1317" d="M156 561v99.5v112.5v737h127v-743v-107.5v-93.5q0 -250 96.5 -360.5t278.5 -110.5t279.5 110.5t97.5 360.5v944h126v-949q0 -297 -132.5 -438.5t-370.5 -141.5t-370 141.5t-132 438.5z" />
<glyph unicode="V" horiz-adv-x="1208" d="M92 1510h139l380 -1419h-11l377 1419h139l-419 -1520h-181z" />
<glyph unicode="W" horiz-adv-x="1719" d="M97 1510h131l232 -1450l-21 1l337 1449h166l337 -1449l-21 -1l232 1450h132l-261 -1510h-192l-318 1398h16l-319 -1398h-192z" />
<glyph unicode="X" horiz-adv-x="1178" d="M68 0l481 799l-1 -104l-468 815h142l409 -726h-83l405 726h143l-464 -815l-1 104l480 -799h-143l-422 711h87l-423 -711h-142z" />
<glyph unicode="Y" horiz-adv-x="1138" d="M92 1510h134l370 -901h-54l368 901h136l-414 -984v-526h-127v526z" />
<glyph unicode="Z" horiz-adv-x="1117" d="M117 0v101l742 1299l1 -1h-696v111h836v-98l-739 -1297v-3h729v-112h-873z" />
<glyph unicode="[" horiz-adv-x="802" d="M201 -447v2112h417v-94h-302v-1924h302v-94h-417z" />
<glyph unicode="\" horiz-adv-x="957" d="M49 1601h111l670 -1760h-110z" />
<glyph unicode="]" horiz-adv-x="802" d="M161 -352h302v1923h-302v94h418v-2111h-418v94z" />
<glyph unicode="^" d="M99 941l449 629h100l450 -629h-118l-390 564h16l-389 -564h-118z" />
<glyph unicode="_" horiz-adv-x="1412" d="M51 -114h1269v-87h-1269v87z" />
<glyph unicode="`" horiz-adv-x="661" d="M141 1510h133l236 -238h-110z" />
<glyph unicode="a" horiz-adv-x="1239" d="M135 303q0 103 53.5 172.5t152 108.5t233.5 52q208 22 299 43.5t91 71.5v6.5v7.5q0 105 -86 163.5t-245 58.5q-166 0 -258.5 -65.5t-92.5 -194.5h-125q0 118 59 202.5t166.5 129t251.5 44.5q129 0 232.5 -40t164.5 -116.5t61 -187.5v-43v-42v-481q0 -35 3 -67t9 -55 q9 -30 19.5 -47.5t16.5 -23.5h-128q-4 4 -13.5 22t-18.5 43q-8 26 -11 57.5t-3 76.5l20 -16q-33 -60 -95.5 -105.5t-149.5 -71t-193 -25.5q-125 0 -218 37.5t-144 110t-51 174.5zM263 309q0 -104 76.5 -159.5t227.5 -55.5q111 0 200.5 36.5t143 104.5t53.5 165v254l27 -47 q-59 -30 -161.5 -47.5t-222.5 -29.5q-169 -16 -256.5 -64t-87.5 -157z" />
<glyph unicode="b" horiz-adv-x="1275" d="M174 0v1601h128v-1601h-128zM208 437v5v4l94 3v-4.5v-4.5q0 -92 49.5 -169.5t131 -124t176.5 -46.5q158 0 260 112.5t102 331.5q0 220 -101.5 331.5t-260.5 111.5q-95 0 -176.5 -46t-131 -123t-49.5 -170l-94 3q0 129 65 231.5t171.5 161.5t231.5 59q132 0 240 -65 t171.5 -190t63.5 -304q0 -181 -63 -307t-170.5 -191t-241.5 -65q-125 0 -231.5 60t-171.5 163.5t-65 232.5z" />
<glyph unicode="c" horiz-adv-x="1282" d="M125 544q0 177 74 302t198 191t274 66q115 0 205 -35.5t152.5 -93.5t95 -126.5t32.5 -134.5v-2.5v-3.5h-126q0 5 -0.5 11.5t-1.5 12.5q-9 74 -58 131.5t-126 91t-174 33.5q-110 0 -204.5 -49.5t-153 -148t-58.5 -245.5q0 -146 58 -246t152.5 -151t205.5 -51 q121 0 199.5 40t118.5 103.5t42 132.5h126q0 -69 -31 -138.5t-92 -127t-151.5 -91.5t-210.5 -34q-150 0 -274 67t-198 193t-74 303z" />
<glyph unicode="d" horiz-adv-x="1266" d="M125 544q0 179 64 304t171.5 190t239.5 65q125 0 232 -59t171.5 -161.5t64.5 -231.5v-7.5v-6.5l-93 -2v6.5v6.5q0 93 -50.5 170t-131.5 123t-177 46q-158 0 -259.5 -111.5t-101.5 -331.5q0 -219 102 -331.5t259 -112.5q97 0 179 47t131 125.5t49 176.5l93 -3 q0 -132 -63.5 -237.5t-169.5 -166.5t-235 -61q-133 0 -241 65t-171 190.5t-63 307.5zM975 0v1601h127v-1601h-127z" />
<glyph unicode="e" horiz-adv-x="1314" d="M125 541q0 166 70.5 292t193.5 198t280 72q160 0 276.5 -73t180 -197t63.5 -279q0 -13 -0.5 -33.5t-1.5 -30.5h-988v114h880l-24 -35v11v10q0 105 -45 196.5t-130.5 146.5t-208.5 55q-125 0 -220.5 -57t-148.5 -156.5t-53 -231.5q0 -133 52.5 -234t148 -157t222.5 -56 q93 0 162 23t114.5 61t69.5 80.5t29 80.5h125q-4 -60 -38 -123t-97 -117.5t-156 -87.5t-213 -33q-158 0 -280.5 71.5t-192.5 198t-70 291.5z" />
<glyph unicode="f" horiz-adv-x="796" d="M52 976v111h242v151q0 61 12.5 117.5t39 104t67 82.5t96.5 54.5t128 19.5q44 0 72.5 -5.5t39.5 -11.5v-111q-13 4 -41 9t-60 5q-73 0 -118 -24.5t-69 -65.5t-32 -91.5t-8 -102.5v-131h321v-111h-321v-976h-127v976h-242z" />
<glyph unicode="g" horiz-adv-x="1234" d="M97 -186q0 43 10 74t22 50l121 -19q-9 -13 -17.5 -38t-8.5 -59q0 -91 99 -135t284 -44q140 0 228 23t130 63t42 88q0 74 -60 97t-149 30l-415 29q-100 8 -161.5 58t-61.5 126q0 46 23 86t54 66.5t56 32.5l101 -49q-28 -5 -67.5 -37t-39.5 -78q0 -41 34 -67.5t125 -33.5 l395 -31q84 -6 148.5 -30.5t100.5 -71t36 -120.5q0 -82 -56 -146.5t-173 -102t-298 -37.5q-252 0 -377 76t-125 200zM131 659q0 124 59.5 224.5t165 160t243.5 59.5q128 0 220 -46t145 -113.5t60 -133.5h-46l23 277h120l-45 -431q-12 -121 -68.5 -219t-156.5 -156t-246 -58 q-151 0 -256.5 58.5t-161.5 157.5t-56 220zM256 660q0 -96 41.5 -169t119.5 -113.5t188 -40.5t187.5 40.5t119 113.5t41.5 173q0 95 -41.5 168t-119 115t-186.5 42q-103 0 -182.5 -43t-123.5 -117t-44 -169z" />
<glyph unicode="h" horiz-adv-x="1248" d="M174 0v1601h127v-1601h-127zM217 693q0 110 59 203t163 150t238 57q195 0 300.5 -118t105.5 -326v-124v-141v-394h-126v411v71.5v82v72.5q0 167 -74 256.5t-228 89.5q-103 0 -183 -43t-125.5 -114t-45.5 -157z" />
<glyph unicode="i" horiz-adv-x="492" d="M150 1447q0 38 28.5 61t68.5 23q39 0 67.5 -23t28.5 -61q0 -39 -28.5 -62t-67.5 -23q-40 0 -68.5 23t-28.5 62zM183 0v1087h125v-1087h-125z" />
<glyph unicode="j" horiz-adv-x="523" d="M-95 -348q13 -4 37 -7t51 -3q76 0 119.5 24t63.5 62.5t25.5 85t5.5 90.5v1183h126v-1189q0 -68 -11.5 -131t-45 -113t-101.5 -79.5t-182 -29.5q-28 0 -51.5 2t-36.5 6v99zM177 1447q0 38 28.5 61t67.5 23q40 0 68.5 -23t28.5 -61q0 -39 -28.5 -62t-68.5 -23 q-39 0 -67.5 23t-28.5 62z" />
<glyph unicode="k" horiz-adv-x="1057" d="M174 0v1601h121v-1003l-36 15l564 474h165l-528 -453l30 67l507 -701h-138l-453 633l32 -19l-164 -138l21 64v-540h-121z" />
<glyph unicode="l" horiz-adv-x="494" d="M189 0v1601h125v-1601h-125z" />
<glyph unicode="m" horiz-adv-x="1794" d="M174 0v1087h127v-1087h-127zM225 658q0 118 49.5 219t140 163.5t215.5 62.5q120 0 193.5 -47.5t108 -133t34.5 -200.5v-100.5v-135.5v-486h-126v500v112v79q0 40 -6.5 89.5t-28.5 96t-69 76.5t-130 30q-87 0 -145.5 -34.5t-93.5 -88.5t-50.5 -115.5t-15.5 -115.5z M890 675q0 110 47.5 207.5t136.5 159t215 61.5q113 0 188 -43t113.5 -123t38.5 -195v-101v-133v-508h-126v501v117.5v77.5q0 39 -5 88t-27 94t-70.5 75t-135.5 30t-145.5 -34t-92.5 -86.5t-47.5 -110.5t-13.5 -105z" />
<glyph unicode="n" horiz-adv-x="1246" d="M174 0v1087h127v-1087h-127zM224 668q0 124 64 222t168 155.5t221 57.5q124 0 215 -46.5t140.5 -134t49.5 -212.5v-92.5v-89.5v-528h-126v541v79.5v58.5q0 91 -32 159t-98.5 106.5t-171.5 38.5q-92 0 -173 -45.5t-130.5 -123.5t-49.5 -175z" />
<glyph unicode="o" horiz-adv-x="1339" d="M125 545q0 162 69.5 287.5t192.5 197.5t283 72t282.5 -72t192 -197.5t69.5 -287.5q0 -161 -69.5 -289t-192 -201t-282.5 -73t-283 73t-192.5 201t-69.5 289zM253 545q0 -130 53 -231.5t147.5 -159t216.5 -57.5q123 0 216.5 57.5t146.5 159t53 231.5q0 131 -53 230 t-146.5 155t-216.5 56q-122 0 -216.5 -56t-147.5 -155t-53 -230z" />
<glyph unicode="p" horiz-adv-x="1275" d="M174 -447v1534h127v-1534h-127zM208 437v5v4l93 3v-4.5v-4.5q0 -92 50 -169.5t131.5 -124t176.5 -46.5q158 0 260 112.5t102 331.5q0 220 -102 331.5t-260 111.5q-95 0 -176.5 -46t-131.5 -123t-50 -170l-93 3q0 129 65 231.5t171.5 161.5t231.5 59q132 0 239.5 -65 t171.5 -190t64 -304q0 -181 -63 -307t-171 -191t-241 -65q-125 0 -231.5 60t-171.5 163.5t-65 232.5z" />
<glyph unicode="q" horiz-adv-x="1265" d="M125 544q0 179 64 304t171.5 190t239.5 65q125 0 232 -59t171.5 -161.5t64.5 -231.5v-7.5v-6.5l-93 -2v6.5v6.5q0 93 -50.5 170t-131.5 123t-177 46q-158 0 -259.5 -111.5t-101.5 -331.5q0 -219 102 -331.5t259 -112.5q97 0 179 47t131 125.5t49 176.5l93 -3 q0 -132 -63.5 -237.5t-169.5 -166.5t-235 -61q-133 0 -241 65t-171 190.5t-63 307.5zM975 -447v1534h126v-1534h-126z" />
<glyph unicode="r" horiz-adv-x="807" d="M174 0v1087h127v-320l-45 14q6 51 30 107t67 105t108 79.5t155 30.5q66 0 106 -11.5t50 -17.5l-35 -123q-10 7 -41.5 18.5t-91.5 11.5q-86 0 -144.5 -33.5t-93 -86.5t-50 -113t-15.5 -115v-633h-127z" />
<glyph unicode="s" horiz-adv-x="1138" d="M125 306.5v17.5h128v-14v-17q3 -94 86.5 -146t230.5 -52q94 0 165.5 21t112.5 62.5t41 101.5q0 99 -85.5 141.5t-251.5 71.5q-86 14 -160.5 37t-130 58.5t-87.5 88.5t-32 128q0 95 57.5 161.5t154.5 101.5t213 35t213 -35.5t155 -105t58 -176.5v-10v-12h-127v9.5v8.5 q0 75 -42 120t-109.5 66t-144.5 21q-76 0 -145.5 -18.5t-113 -58t-43.5 -103.5q0 -65 41 -104t116 -63.5t174 -42.5q91 -16 167 -39t131 -58t86 -88t31 -128t-34 -132t-95 -96t-142 -58t-175 -19q-98 0 -179 20.5t-139.5 59.5t-90.5 96t-33 131q-1 9 -1 18.5z" />
<glyph unicode="t" horiz-adv-x="856" d="M52 976v111h189q27 0 42 2.5t21.5 10.5t8 25.5t1.5 48.5v265h127v-352h349v-111h-349v-595v-47.5v-41.5q0 -92 27.5 -144.5t102.5 -52.5q29 0 56.5 5t42.5 12v-111q-17 -7 -48 -12t-67 -5q-46 0 -89.5 11t-78 40.5t-54 80.5t-19.5 130v44.5v48.5v637h-262z" />
<glyph unicode="u" horiz-adv-x="1218" d="M174 409v80.5v83.5v514h128v-501v-77v-73q0 -87 25.5 -164t88 -125.5t170.5 -48.5q101 0 178 55.5t120.5 141t43.5 175.5l78 -32q0 -82 -30.5 -162t-87.5 -147.5t-139.5 -107t-185.5 -39.5q-117 0 -193 40.5t-119 106t-60 140t-17 140.5zM928 0v1087h127v-1087h-127z" />
<glyph unicode="v" horiz-adv-x="1075" d="M76 1087h131l345 -1012h-21l336 1012h131l-375 -1087h-162z" />
<glyph unicode="w" horiz-adv-x="1536" d="M76 1087h132l214 -1026h-24l298 1026h115l-312 -1087h-175zM724 1087h115l301 -1026h-24l211 1026h132l-245 -1087h-174z" />
<glyph unicode="x" horiz-adv-x="1081" d="M73 0l425 570l-1 -61l-411 578h138l361 -502l-77 2l351 500h136l-400 -561l8 40l403 -566h-142l-359 498l81 15l-376 -513h-137z" />
<glyph unicode="y" horiz-adv-x="1050" d="M74 -330q13 -6 43 -10.5t58 -4.5q71 0 117.5 32t77 85.5t52.5 114.5l38 110l-382 1090h133l328 -973h-19l324 973h130l-414 -1193q-31 -89 -74 -169t-114.5 -130t-189.5 -50q-38 0 -69 5t-39 9v111z" />
<glyph unicode="z" horiz-adv-x="996" d="M90 0v112l666 863l1 -3h-634v115h772v-111l-664 -862l-1 2h676v-116h-816z" />
<glyph unicode="{" horiz-adv-x="820" d="M186 544v84q61 20 95 46.5t47 71t13 115.5v479q0 105 49 174t131 103t178 34v-98q-104 0 -171.5 -64.5t-67.5 -179.5v-468q0 -78 -19.5 -130t-60.5 -82.5t-105 -44.5v6q63 -13 104.5 -45t61 -84t19.5 -130v-127.5v-147.5v-116v-103q0 -116 67.5 -167.5t171.5 -51.5v-96 q-96 0 -178 27t-131 88.5t-49 166.5v107.5v122.5v147.5v129.5q0 72 -13 116t-46.5 70.5t-95.5 46.5z" />
<glyph unicode="|" horiz-adv-x="580" d="M197 -287v1878h101v-1878h-101z" />
<glyph unicode="}" horiz-adv-x="820" d="M125 -382q105 0 172.5 51.5t67.5 167.5v494q0 78 19.5 130t60.5 84t104 45v-6q-62 14 -103.5 44.5t-61 82.5t-19.5 130v123v122v111v112q0 116 -67.5 180t-172.5 64v98q97 0 178.5 -34t130.5 -102.5t49 -174.5v-116v-117v-122.5v-123.5q0 -72 13.5 -116t47 -70.5 t94.5 -46.5v-84q-61 -19 -94.5 -46t-47 -71t-13.5 -116v-507q0 -105 -49 -166.5t-130.5 -88.5t-178.5 -27v96z" />
<glyph unicode="~" d="M323 625q2 29 20 62t53 58t88 25q45 0 75 -17t54 -37q25 -19 50 -33.5t54 -14.5q46 0 59 23.5t15 46.5h80q-1 -25 -16 -58t-46.5 -58.5t-88.5 -25.5q-44 0 -76 18t-59 39q-22 16 -45.5 30.5t-56.5 14.5q-45 0 -61 -24.5t-18 -48.5h-81z" />
<glyph unicode="&#xa1;" horiz-adv-x="582" d="M197 1002q0 43 29.5 73t72.5 30t72.5 -29.5t29.5 -73.5q0 -42 -29.5 -72t-72.5 -30t-72.5 30.5t-29.5 71.5zM234 -429l21 1175h86l21 -1175h-128z" />
<glyph unicode="&#xa2;" horiz-adv-x="1282" d="M125 761q0 177 74 302t198 191t274 66q115 0 205 -35.5t152.5 -93t95 -126.5t32.5 -135v-2.5v-3.5h-126q0 5 -0.5 11.5t-1.5 12.5q-9 74 -58 131.5t-126 91t-174 33.5q-110 0 -204.5 -49.5t-153 -148t-58.5 -245.5q0 -146 58 -246t152.5 -151t205.5 -51q121 0 199.5 40 t118.5 103.5t42 132.5h126q0 -69 -31 -138.5t-92 -127t-151.5 -91.5t-210.5 -34q-150 0 -274 67t-198 193t-74 303zM621 0v1510h70v-1510h-70z" />
<glyph unicode="&#xa3;" horiz-adv-x="1119" d="M58 617v82h702v-82h-702zM114 59q18 8 54 37t74 75.5t64 112t26 147.5q0 112 -25.5 199.5t-59.5 165t-59.5 160.5t-25.5 187q0 109 51.5 195.5t144.5 137.5t219 51q92 0 159.5 -21.5t115.5 -57.5t80 -79t51 -85l-82 -54q-23 52 -62 98t-101 75.5t-152 29.5 q-102 0 -171.5 -42t-104 -110t-34.5 -145q0 -91 25 -164t57.5 -147t57 -167.5t24.5 -226.5q0 -83 -23 -151t-58 -120t-73.5 -89t-71 -59t-48.5 -29zM166 -17l10 34q11 5 30 19.5t45.5 33.5t58.5 36.5t70 29.5t80 12q75 0 126.5 -18.5t101.5 -37.5t120 -19q57 0 102.5 14 t61.5 23l44 -94q-19 -10 -76 -26.5t-132 -16.5t-135 19.5t-117 38.5t-127 19q-60 0 -115.5 -13.5t-94.5 -30t-53 -23.5z" />
<glyph unicode="&#xa4;" horiz-adv-x="1336" d="M75 173l223 222l63 -63l-223 -222zM75 1258l63 64l223 -222l-63 -65zM162 720q0 162 69.5 288t192 197.5t282.5 71.5t282.5 -71.5t192 -197.5t69.5 -288q0 -161 -69.5 -289t-192 -201t-282.5 -73t-282.5 73t-192 201t-69.5 289zM289 720q0 -130 53 -231.5t148 -159 t216 -57.5q123 0 216.5 57.5t147 159t53.5 231.5q0 131 -53.5 230.5t-147.5 155t-216 55.5q-121 0 -216 -55.5t-148 -155t-53 -230.5zM1036 332l65 63l223 -222l-64 -63zM1036 1100l224 222l64 -64l-223 -223z" />
<glyph unicode="&#xa5;" horiz-adv-x="1138" d="M92 1510h134l370 -901h-54l368 901h136l-414 -984v-526h-127v526zM178 521v83h769v-83h-769zM179 288v83h769v-83h-769z" />
<glyph unicode="&#xa6;" horiz-adv-x="580" d="M197 -264v783h101v-783h-101zM197 810v781h101v-781h-101z" />
<glyph unicode="&#xa7;" horiz-adv-x="1333" d="M131 677q0 66 23 118.5t61 94t84 70t93 45.5l84 -36q-58 -17 -115.5 -54t-96 -94t-38.5 -137q0 -81 54.5 -140.5t142 -105t186.5 -88.5q106 -44 203.5 -94t159.5 -114t62 -152q0 -97 -51.5 -164.5t-140.5 -102t-204 -34.5q-116 0 -205.5 32.5t-141 100t-51.5 173.5v13v14 h110v-13.5v-13.5q0 -77 30 -124t75.5 -70.5t95 -32t89.5 -8.5q123 0 203.5 57t80.5 166q0 70 -51.5 120.5t-132.5 90t-170 77.5q-82 35 -160 72t-141 83t-100.5 107t-37.5 144zM210 1221q0 97 51 164t141 102t204 35q116 0 205.5 -33t141 -100t51.5 -172v-13.5v-13.5h-111 v13v14q0 77 -29.5 123t-75.5 70t-95 32t-89 8q-123 0 -203 -56.5t-80 -165.5q0 -70 50.5 -120.5t131.5 -90.5t171 -77q82 -34 160 -71.5t141 -83.5t100.5 -107.5t37.5 -143.5q0 -65 -23 -118.5t-61.5 -94t-84.5 -70t-92 -45.5l-84 36q58 18 115.5 54.5t95.5 93.5t38 136 q0 82 -54.5 140.5t-142 104.5t-186.5 89q-104 45 -202 95.5t-160 114.5t-62 151z" />
<glyph unicode="&#xa8;" horiz-adv-x="723" d="M87 1442q0 36 27.5 58.5t63.5 22.5q38 0 64.5 -22.5t26.5 -58.5t-26.5 -58.5t-64.5 -22.5q-36 0 -63.5 22.5t-27.5 58.5zM455 1442q0 36 27 58.5t63 22.5q38 0 64.5 -22.5t26.5 -58.5t-26.5 -58.5t-64.5 -22.5q-36 0 -63 22.5t-27 58.5z" />
<glyph unicode="&#xa9;" horiz-adv-x="1814" d="M114 759q0 223 96.5 386t264 252t377.5 89q209 0 375.5 -89t263 -252t96.5 -386t-96.5 -387.5t-263 -253.5t-375.5 -89q-210 0 -377.5 89t-264 253.5t-96.5 387.5zM173 759q0 -206 90 -357.5t244 -234t345 -82.5q189 0 342.5 82.5t243 234t89.5 357.5q0 205 -89.5 356 t-243 233.5t-342.5 82.5q-191 0 -345 -82.5t-244 -233.5t-90 -356zM418 763q0 156 52 264.5t150 165t234 56.5q111 0 186.5 -37.5t121 -94.5t65.5 -114.5t20 -96.5v-5.5v-6.5h-98v4v4q0 27 -13.5 71.5t-46 89.5t-90 75.5t-145.5 30.5q-161 0 -248.5 -104t-87.5 -300 q0 -135 43 -228.5t119.5 -141t173.5 -47.5q85 0 151.5 37.5t105 100.5t38.5 138h98q0 -104 -52 -185t-140.5 -126t-200.5 -45q-124 0 -223 56t-156 166t-57 273z" />
<glyph unicode="&#xaa;" horiz-adv-x="667" d="M108 1166q0 44 24 72.5t69.5 45t108.5 26.5q105 16 138 29t33 32l47 -31q-2 -20 -57.5 -42t-148.5 -37q-78 -12 -113.5 -32t-35.5 -62q0 -41 37.5 -59t100.5 -18q60 0 115 34t55 94l45 -23q0 -48 -31.5 -84.5t-83.5 -57t-113 -20.5q-88 0 -139 35.5t-51 97.5zM121 1358 q0 79 60.5 121.5t161.5 42.5q91 0 146 -37t55 -114v-8v-9v-207q0 -35 5 -64t11 -43h-64q-6 15 -10.5 41.5t-4.5 55.5v216v10.5v11.5q0 44 -32 68t-106 24q-77 0 -119 -27.5t-42 -81.5h-61z" />
<glyph unicode="&#xab;" horiz-adv-x="747" d="M36 579l332 327h83l-335 -327l335 -322h-83zM297 579l332 327h83l-334 -327l332 -322h-82z" />
<glyph unicode="&#xac;" d="M225 630v83h712v-354h-82v329l57 -58h-687z" />
<glyph unicode="&#xad;" horiz-adv-x="774" d="M95 539v82h498v-82h-498z" />
<glyph unicode="&#xae;" horiz-adv-x="1267" d="M93 1013q0 152 69.5 266t189.5 177.5t269 63.5q150 0 268 -63.5t187.5 -178t69.5 -265.5q0 -152 -69.5 -266t-187.5 -177.5t-268 -63.5q-148 0 -268.5 63.5t-190 177.5t-69.5 266zM148 1013q0 -139 61 -242.5t168 -160t244 -56.5t243 56.5t166.5 159.5t60.5 243 t-60.5 243t-166.5 158.5t-243 55.5t-244 -55.5t-168 -158.5t-61 -243zM425 707v627h209q101 0 154 -36.5t53 -128.5q0 -69 -39 -105.5t-106 -42.5q68 -4 96 -36t28 -85v-60.5v-60.5q0 -36 4 -52t7 -20h-61q1 3 -4 19t-5 53v53v52q0 54 -26 77t-63.5 27.5t-74.5 4.5h-112 v-286h-60zM485 1043h118q91 0 136 34t45 91q0 70 -39.5 94.5t-105.5 24.5h-154v-244z" />
<glyph unicode="&#xaf;" horiz-adv-x="768" d="M135 1360v61h495v-61h-495z" />
<glyph unicode="&#xb0;" horiz-adv-x="685" d="M129 1357q0 51 25 93t67 67t93 25q52 0 94 -25t67 -67t25 -93t-25 -93t-67 -67.5t-94 -25.5q-51 0 -93 25.5t-67 67.5t-25 93zM194 1357q0 -50 35 -85.5t85 -35.5t85.5 35.5t35.5 85.5t-35 85.5t-86 35.5q-50 0 -85 -35.5t-35 -85.5z" />
<glyph unicode="&#xb1;" d="M213 680v86h336v274h88v-274h336v-86h-336v-273h-88v273h-336zM220 216v85h743v-85h-743z" />
<glyph unicode="&#xb2;" horiz-adv-x="890" d="M112 1224q0 133 79.5 215.5t248.5 82.5q102 0 170.5 -32t103.5 -88t35 -134q0 -72 -42 -130.5t-103.5 -105t-120.5 -85.5q-57 -40 -109.5 -85t-86.5 -89.5t-36 -85.5h509v-83h-645v92q3 43 45 94t104.5 101.5t124.5 91.5q59 40 117 84t95.5 93.5t37.5 106.5 q0 80 -50.5 124t-149.5 44q-119 0 -168 -60.5t-49 -150.5h-110z" />
<glyph unicode="&#xb3;" horiz-adv-x="894" d="M118 882v1.5v1.5h110v-1.5v-1.5q0 -114 57.5 -159.5t160.5 -45.5q95 0 149.5 54t54.5 149q0 39 -16.5 76t-59.5 60.5t-120 23.5h-42v75h42q77 0 119 23t59.5 58.5t17.5 72.5q0 82 -54.5 124.5t-146.5 42.5q-100 0 -160.5 -45.5t-60.5 -147.5h-110q0 82 36 144.5t109 98.5 t183 36q106 0 175.5 -31.5t104 -86t34.5 -125.5q0 -75 -41.5 -135t-147.5 -63q109 -3 149 -65t40 -145q0 -79 -34.5 -142.5t-104 -100.5t-176.5 -37q-87 0 -149.5 20t-101.5 58t-57.5 91.5t-18.5 121.5z" />
<glyph unicode="&#xb4;" horiz-adv-x="622" d="M102 1272l235 238h133l-259 -238h-109z" />
<glyph unicode="&#xb5;" horiz-adv-x="1171" d="M157 -447v1534h128v-587v-31.5v-32.5q0 -87 19.5 -167.5t76 -130.5t164.5 -50q101 0 178 47.5t120.5 125.5t43.5 168l51 -32q0 -73 -25.5 -146.5t-76 -134.5t-124.5 -97.5t-170 -36.5q-117 0 -175.5 47t-81.5 108v-584h-128zM887 0v1087h127v-1087h-127z" />
<glyph unicode="&#xb6;" horiz-adv-x="1129" d="M145 1072q0 79 25 156.5t81 141t150.5 101t233.5 37.5h343v-1682h-95v1599h-131v-1599h-94v803h-23q-132 0 -225.5 37t-151.5 101t-85.5 143t-27.5 162z" />
<glyph unicode="&#xb7;" horiz-adv-x="502" d="M148 755q0 42 30 72t73 30t72.5 -30t29.5 -72q0 -43 -29.5 -73t-72.5 -30t-73 30t-30 73z" />
<glyph unicode="&#xb8;" horiz-adv-x="827" d="M224 -403l30 58q12 -8 47.5 -21.5t85.5 -13.5q63 0 107 31.5t44 88.5q0 47 -24.5 68.5t-61.5 21.5q-27 0 -55.5 -10.5t-43.5 -29.5l-62 21l69 189h71l-64 -177l-20 7q9 22 47 37.5t77 15.5q35 0 65 -15t49.5 -47t19.5 -83q0 -59 -31.5 -98t-82.5 -58.5t-110 -19.5 q-54 0 -98 12t-59 23z" />
<glyph unicode="&#xb9;" horiz-adv-x="651" d="M59 1326v81q52 7 99 26t80 42t45 38h105v-909h-109v802q-6 -6 -38.5 -24t-79.5 -34.5t-102 -21.5z" />
<glyph unicode="&#xba;" horiz-adv-x="813" d="M142 1278q0 76 36.5 128.5t95.5 81t123 28.5q66 0 125.5 -28.5t96.5 -81t37 -128.5q0 -75 -37 -128t-96.5 -81t-125.5 -28q-65 0 -123.5 28t-95 81t-36.5 128zM208 1278q0 -58 27.5 -98t71 -60.5t90.5 -20.5t92 20.5t73.5 60.5t28.5 98q0 59 -28.5 99t-73.5 60.5 t-92 20.5t-90.5 -20.5t-71 -60.5t-27.5 -99z" />
<glyph unicode="&#xbb;" horiz-adv-x="720" d="M36 906h84l334 -327l-333 -322h-83l334 322zM268 257l337 322l-337 327h82l334 -327l-334 -322h-82z" />
<glyph unicode="&#xbc;" horiz-adv-x="1700" d="M59 1326v81q52 7 99 26t80 42t45 38h105v-909h-109v802q-6 -6 -38.5 -24t-79.5 -34.5t-102 -21.5zM195 0l991 1510h100l-991 -1510h-100zM931 207v71l379 631h140v-625h159v-77h-159v-207h-110v207h-409zM985 284h355v547l21 -6l-346 -585z" />
<glyph unicode="&#xbd;" horiz-adv-x="1722" d="M59 1326v81q52 7 99 26t80 42t45 38h105v-909h-109v802q-6 -6 -38.5 -24t-79.5 -34.5t-102 -21.5zM195 0l991 1510h100l-991 -1510h-100zM942 620q0 133 79.5 215.5t248.5 82.5q102 0 170.5 -32t103.5 -88.5t35 -133.5q0 -72 -42 -130.5t-103.5 -105t-120.5 -85.5 q-57 -40 -109.5 -85t-86.5 -89.5t-36 -85.5h509v-83h-645v92q3 43 45 94t104.5 101.5t124.5 91.5q59 40 117 84t95.5 93.5t37.5 106.5q0 80 -50.5 123.5t-149.5 43.5q-119 0 -168 -60t-49 -150h-110z" />
<glyph unicode="&#xbe;" horiz-adv-x="1944" d="M118 882v1.5v1.5h110v-1.5v-1.5q0 -114 57.5 -159.5t160.5 -45.5q95 0 149.5 54t54.5 149q0 39 -16.5 76t-59.5 60.5t-120 23.5h-42v75h42q77 0 119 23t59.5 58.5t17.5 72.5q0 82 -54.5 124.5t-146.5 42.5q-100 0 -160.5 -45.5t-60.5 -147.5h-110q0 82 36 144.5t109 98.5 t183 36q106 0 175.5 -31.5t104 -86t34.5 -125.5q0 -75 -41.5 -135t-147.5 -63q109 -3 149 -65t40 -145q0 -79 -34.5 -142.5t-104 -100.5t-176.5 -37q-87 0 -149.5 20t-101.5 58t-57.5 91.5t-18.5 121.5zM439 0l991 1510h100l-991 -1510h-100zM1175 207v71l379 631h140v-625 h159v-77h-159v-207h-110v207h-409zM1229 284h355v547l21 -6l-346 -585z" />
<glyph unicode="&#xbf;" horiz-adv-x="1120" d="M139 -12q0 96 30 169t76 132t95 111q69 75 122.5 154.5t53.5 193.5h106q0 -90 -28.5 -161t-72 -130t-91.5 -113q-45 -51 -85 -104.5t-65.5 -116.5t-25.5 -141q0 -155 75 -236.5t223 -81.5q150 0 226.5 88.5t76.5 251.5h115q0 -147 -53 -246.5t-147 -149.5t-218 -50 q-125 0 -217.5 49.5t-144 145t-51.5 235.5zM458 1002q0 43 30 73t72 30q43 0 73 -29.5t30 -73.5q0 -42 -30 -72t-73 -30q-42 0 -72 30.5t-30 71.5z" />
<glyph unicode="&#xc0;" horiz-adv-x="1234" d="M92 0l429 1516h196l426 -1516h-132l-394 1428h3l-396 -1428h-132zM289 421v111h660v-111h-660zM308 1762h144l280 -177h-127z" />
<glyph unicode="&#xc1;" horiz-adv-x="1234" d="M92 0l429 1516h196l426 -1516h-132l-394 1428h3l-396 -1428h-132zM289 421v111h660v-111h-660zM514 1585l281 177h144l-298 -177h-127z" />
<glyph unicode="&#xc2;" horiz-adv-x="1234" d="M92 0l429 1516h196l426 -1516h-132l-394 1428h3l-396 -1428h-132zM289 421v111h660v-111h-660zM353 1583l209 174h112l210 -174h-109l-176 152h41l-180 -152h-107z" />
<glyph unicode="&#xc3;" horiz-adv-x="1234" d="M92 0l429 1516h196l426 -1516h-132l-394 1428h3l-396 -1428h-132zM289 421v111h660v-111h-660zM348 1609q2 29 20 62.5t53 58t88 24.5q45 0 75 -17.5t54 -36.5q25 -18 50 -33t54 -15q46 0 59 24t15 46h80q-1 -26 -16 -58.5t-46.5 -58t-88.5 -25.5q-44 0 -76 18.5 t-59 37.5q-22 17 -45.5 31t-56.5 14q-45 0 -61 -24t-18 -48h-81z" />
<glyph unicode="&#xc4;" horiz-adv-x="1234" d="M92 0l429 1516h196l426 -1516h-132l-394 1428h3l-396 -1428h-132zM289 421v111h660v-111h-660zM344 1686q0 36 27.5 58t63.5 22q38 0 64.5 -22.5t26.5 -57.5q0 -36 -26.5 -58.5t-64.5 -22.5q-36 0 -63.5 22.5t-27.5 58.5zM712 1686q0 36 27 58t63 22q38 0 64.5 -22.5 t26.5 -57.5q0 -36 -26.5 -58.5t-64.5 -22.5q-36 0 -63 22.5t-27 58.5z" />
<glyph unicode="&#xc5;" horiz-adv-x="1234" d="M92 0l429 1516h196l426 -1516h-132l-394 1428h3l-396 -1428h-132zM289 421v111h660v-111h-660zM434 1744q0 51 24.5 93t67 67t93.5 25t93 -25t67.5 -67t25.5 -93t-25.5 -93t-67.5 -67t-93 -25t-93.5 25t-67 67t-24.5 93zM498 1744q0 -50 35.5 -85.5t85.5 -35.5t85 35.5 t35 85.5t-35 85.5t-85 35.5t-85.5 -35.5t-35.5 -85.5z" />
<glyph unicode="&#xc6;" horiz-adv-x="1884" d="M5 0l884 1510h838v-111h-715l44 44v-673l-40 44h598v-113h-596l38 41v-669l-40 39h711v-112h-794v1393l13 -8l-802 -1385h-139zM317 354l28 112h648v-112h-676z" />
<glyph unicode="&#xc7;" horiz-adv-x="1326" d="M109 755q0 172 38.5 313t113 244t182.5 159t246 56q155 0 264 -65t173 -165.5t82 -205.5q9 -48 10 -93h-127q0 28 -6 65q-13 90 -62.5 169.5t-133 129.5t-200.5 50q-136 0 -237.5 -77.5t-157.5 -223.5t-56 -356q0 -209 56 -357t157.5 -225.5t237.5 -77.5q97 0 172 37 t126 98t77.5 134.5t26.5 147.5h127q0 -89 -33 -182t-98.5 -172.5t-165 -128t-232.5 -48.5q-138 0 -246 56t-182.5 159.5t-113 245.5t-38.5 313zM514 -403l30 58q12 -8 47.5 -21.5t85.5 -13.5q63 0 106.5 31.5t43.5 88.5q0 47 -24 68.5t-62 21.5q-27 0 -55.5 -10.5 t-42.5 -29.5l-60 21l69 189h66l-64 -177l-10 7q9 22 43.5 37.5t73.5 15.5q35 0 65 -15t49.5 -47t19.5 -83q0 -59 -32 -98t-82.5 -58.5t-109.5 -19.5q-54 0 -98.5 12t-58.5 23z" />
<glyph unicode="&#xc8;" horiz-adv-x="1105" d="M156 0v1510h794v-111h-725l58 70v-700l-33 45h607v-113h-607l33 45v-705l-58 71h725v-112h-794zM254 1762h144l280 -177h-127z" />
<glyph unicode="&#xc9;" horiz-adv-x="1105" d="M156 0v1510h794v-111h-725l58 70v-700l-33 45h607v-113h-607l33 45v-705l-58 71h725v-112h-794zM459 1585l281 177h144l-298 -177h-127z" />
<glyph unicode="&#xca;" horiz-adv-x="1105" d="M156 0v1510h794v-111h-725l58 70v-700l-33 45h607v-113h-607l33 45v-705l-58 71h725v-112h-794zM299 1583l209 174h112l210 -174h-109l-176 152h41l-180 -152h-107z" />
<glyph unicode="&#xcb;" horiz-adv-x="1105" d="M156 0v1510h794v-111h-725l58 70v-700l-33 45h607v-113h-607l33 45v-705l-58 71h725v-112h-794zM290 1686q0 36 27.5 58t63.5 22q38 0 64.5 -22.5t26.5 -57.5q0 -36 -26.5 -58.5t-64.5 -22.5q-36 0 -63.5 22.5t-27.5 58.5zM658 1686q0 36 27 58t63 22q38 0 64.5 -22.5 t26.5 -57.5q0 -36 -26.5 -58.5t-64.5 -22.5q-36 0 -63 22.5t-27 58.5z" />
<glyph unicode="&#xcc;" horiz-adv-x="466" d="M-77 1762h144l280 -177h-127zM171 0v1510h125v-1510h-125z" />
<glyph unicode="&#xcd;" horiz-adv-x="466" d="M130 1585l281 177h144l-298 -177h-127zM171 0v1510h125v-1510h-125z" />
<glyph unicode="&#xce;" horiz-adv-x="466" d="M-32 1583l209 174h112l210 -174h-109l-176 152h41l-180 -152h-107zM171 0v1510h125v-1510h-125z" />
<glyph unicode="&#xcf;" horiz-adv-x="466" d="M20 1690q0 36 27.5 57.5t63.5 21.5q37 0 64 -22t27 -57q0 -37 -27 -59t-64 -22t-64 22t-27 59zM171 0v1510h125v-1510h-125zM268 1690q0 36 27 57.5t63 21.5q38 0 64.5 -22t26.5 -57q0 -37 -26.5 -59t-64.5 -22q-36 0 -63 22t-27 59z" />
<glyph unicode="&#xd0;" horiz-adv-x="1256" d="M4 723v65h703v-65h-703zM156 0v1510h342q150 0 269.5 -51t204.5 -148.5t130.5 -237.5t45.5 -318q0 -177 -45.5 -317.5t-130.5 -238t-205 -148.5t-269 -51h-342zM227 112h257q160 0 280.5 77t187.5 221.5t67 344.5q0 202 -67 345.5t-187.5 221t-280.5 77.5h-257l58 70 v-1428z" />
<glyph unicode="&#xd1;" horiz-adv-x="1337" d="M156 0v1510h206l707 -1436l-11 -6v1442h124v-1510h-210l-705 1435l13 6v-1441h-124zM404 1609q2 29 20 62.5t53 58t88 24.5q45 0 75 -17.5t54 -36.5q25 -18 50 -33t54 -15q46 0 59 24t15 46h80q-1 -26 -16 -58.5t-46.5 -58t-88.5 -25.5q-44 0 -76 18.5t-59 37.5 q-22 17 -45.5 31t-56.5 14q-45 0 -61 -24t-18 -48h-81z" />
<glyph unicode="&#xd2;" horiz-adv-x="1397" d="M109 757q0 183 43.5 326t122.5 242t187 150.5t236 51.5q129 0 237 -51.5t187.5 -150.5t123 -242t43.5 -326q0 -182 -43.5 -326.5t-123 -244.5t-187.5 -152.5t-237 -52.5t-236.5 52.5t-186.5 152.5t-122.5 244t-43.5 327zM237 757q0 -214 59 -361.5t163.5 -224 t238.5 -76.5q136 0 240 77t163 224.5t59 360.5q0 214 -59.5 360t-163 220.5t-239.5 74.5q-134 0 -238.5 -74.5t-163.5 -220.5t-59 -360zM388 1762h144l280 -177h-127z" />
<glyph unicode="&#xd3;" horiz-adv-x="1397" d="M109 757q0 183 43.5 326t122.5 242t187 150.5t236 51.5q129 0 237 -51.5t187.5 -150.5t123 -242t43.5 -326q0 -182 -43.5 -326.5t-123 -244.5t-187.5 -152.5t-237 -52.5t-236.5 52.5t-186.5 152.5t-122.5 244t-43.5 327zM237 757q0 -214 59 -361.5t163.5 -224 t238.5 -76.5q136 0 240 77t163 224.5t59 360.5q0 214 -59.5 360t-163 220.5t-239.5 74.5q-134 0 -238.5 -74.5t-163.5 -220.5t-59 -360zM594 1585l281 177h144l-298 -177h-127z" />
<glyph unicode="&#xd4;" horiz-adv-x="1397" d="M109 757q0 183 43.5 326t122.5 242t187 150.5t236 51.5q129 0 237 -51.5t187.5 -150.5t123 -242t43.5 -326q0 -182 -43.5 -326.5t-123 -244.5t-187.5 -152.5t-237 -52.5t-236.5 52.5t-186.5 152.5t-122.5 244t-43.5 327zM237 757q0 -214 59 -361.5t163.5 -224 t238.5 -76.5q136 0 240 77t163 224.5t59 360.5q0 214 -59.5 360t-163 220.5t-239.5 74.5q-134 0 -238.5 -74.5t-163.5 -220.5t-59 -360zM432 1583l209 174h112l210 -174h-109l-176 152h41l-180 -152h-107z" />
<glyph unicode="&#xd5;" horiz-adv-x="1397" d="M109 757q0 183 43.5 326t122.5 242t187 150.5t236 51.5q129 0 237 -51.5t187.5 -150.5t123 -242t43.5 -326q0 -182 -43.5 -326.5t-123 -244.5t-187.5 -152.5t-237 -52.5t-236.5 52.5t-186.5 152.5t-122.5 244t-43.5 327zM237 757q0 -214 59 -361.5t163.5 -224 t238.5 -76.5q136 0 240 77t163 224.5t59 360.5q0 214 -59.5 360t-163 220.5t-239.5 74.5q-134 0 -238.5 -74.5t-163.5 -220.5t-59 -360zM428 1609q2 29 20 62.5t53 58t88 24.5q45 0 75 -17.5t54 -36.5q25 -18 50 -33t54 -15q46 0 59 24t15 46h80q-1 -26 -16 -58.5t-46.5 -58 t-88.5 -25.5q-44 0 -76 18.5t-59 37.5q-22 17 -45.5 31t-56.5 14q-45 0 -61 -24t-18 -48h-81z" />
<glyph unicode="&#xd6;" horiz-adv-x="1397" d="M109 757q0 183 43.5 326t122.5 242t187 150.5t236 51.5q129 0 237 -51.5t187.5 -150.5t123 -242t43.5 -326q0 -182 -43.5 -326.5t-123 -244.5t-187.5 -152.5t-237 -52.5t-236.5 52.5t-186.5 152.5t-122.5 244t-43.5 327zM237 757q0 -214 59 -361.5t163.5 -224 t238.5 -76.5q136 0 240 77t163 224.5t59 360.5q0 214 -59.5 360t-163 220.5t-239.5 74.5q-134 0 -238.5 -74.5t-163.5 -220.5t-59 -360zM424 1686q0 36 27.5 58t63.5 22q38 0 64.5 -22.5t26.5 -57.5q0 -36 -26.5 -58.5t-64.5 -22.5q-36 0 -63.5 22.5t-27.5 58.5zM792 1686 q0 36 27 58t63 22q38 0 64.5 -22.5t26.5 -57.5q0 -36 -26.5 -58.5t-64.5 -22.5q-36 0 -63 22.5t-27 58.5z" />
<glyph unicode="&#xd7;" d="M274 762l60 60l581 -517l-62 -59zM275 305l578 517l62 -59l-579 -517z" />
<glyph unicode="&#xd8;" horiz-adv-x="1397" d="M109 757q0 183 43.5 326t122.5 242t187 150.5t236 51.5q129 0 237 -51.5t187.5 -150.5t123 -242t43.5 -326q0 -182 -43.5 -326.5t-123 -244.5t-187.5 -152.5t-237 -52.5t-236.5 52.5t-186.5 152.5t-122.5 244t-43.5 327zM183 -32l956 1615l74 -40l-957 -1615zM237 757 q0 -214 59 -361.5t163.5 -224t238.5 -76.5q136 0 240 77t163 224.5t59 360.5q0 214 -59.5 360t-163 220.5t-239.5 74.5q-134 0 -238.5 -74.5t-163.5 -220.5t-59 -360z" />
<glyph unicode="&#xd9;" horiz-adv-x="1317" d="M156 561v99.5v112.5v737h127v-743v-107.5v-93.5q0 -250 96.5 -360.5t278.5 -110.5t279.5 110.5t97.5 360.5v944h126v-949q0 -297 -132.5 -438.5t-370.5 -141.5t-370 141.5t-132 438.5zM347 1762h144l280 -177h-127z" />
<glyph unicode="&#xda;" horiz-adv-x="1317" d="M156 561v99.5v112.5v737h127v-743v-107.5v-93.5q0 -250 96.5 -360.5t278.5 -110.5t279.5 110.5t97.5 360.5v944h126v-949q0 -297 -132.5 -438.5t-370.5 -141.5t-370 141.5t-132 438.5zM554 1585l281 177h144l-298 -177h-127z" />
<glyph unicode="&#xdb;" horiz-adv-x="1317" d="M156 561v99.5v112.5v737h127v-743v-107.5v-93.5q0 -250 96.5 -360.5t278.5 -110.5t279.5 110.5t97.5 360.5v944h126v-949q0 -297 -132.5 -438.5t-370.5 -141.5t-370 141.5t-132 438.5zM392 1583l209 174h112l210 -174h-109l-176 152h41l-180 -152h-107z" />
<glyph unicode="&#xdc;" horiz-adv-x="1317" d="M156 561v99.5v112.5v737h127v-743v-107.5v-93.5q0 -250 96.5 -360.5t278.5 -110.5t279.5 110.5t97.5 360.5v944h126v-949q0 -297 -132.5 -438.5t-370.5 -141.5t-370 141.5t-132 438.5zM384 1686q0 36 27.5 58t63.5 22q38 0 64.5 -22.5t26.5 -57.5q0 -36 -26.5 -58.5 t-64.5 -22.5q-36 0 -63.5 22.5t-27.5 58.5zM752 1686q0 36 27 58t63 22q38 0 64.5 -22.5t26.5 -57.5q0 -36 -26.5 -58.5t-64.5 -22.5q-36 0 -63 22.5t-27 58.5z" />
<glyph unicode="&#xdd;" horiz-adv-x="1138" d="M92 1510h134l370 -901h-54l368 901h136l-414 -984v-526h-127v526zM463 1585l281 177h144l-298 -177h-127z" />
<glyph unicode="&#xde;" horiz-adv-x="1106" d="M156 0v1508h127v-376l-42 42h293q136 0 240.5 -50t164 -144.5t59.5 -233.5t-60.5 -234t-165.5 -144t-238 -49h-293l42 42v-361h-127zM246 1061l37 50v-728l-35 49h274q100 0 179 35.5t125 105.5t46 173q0 104 -46 174.5t-125 105.5t-179 35h-276z" />
<glyph unicode="&#xdf;" horiz-adv-x="1210" d="M147 0v1032q0 111 22 194.5t62 142.5t95.5 96.5t122 55t141.5 17.5q105 0 187 -40t129 -111.5t47 -166.5q0 -96 -46 -161t-86 -101q-31 -29 -49.5 -54.5t-18.5 -58.5q0 -31 38 -65.5t96 -76.5q45 -33 91 -77t76.5 -104.5t30.5 -143.5q0 -121 -52.5 -209t-153.5 -135 t-247 -47q-68 0 -121 9.5t-76 17.5l24 118q17 -7 65 -19t107 -12q146 0 236.5 64t90.5 199q0 63 -27 112.5t-67.5 88t-81.5 68.5q-60 44 -109 96.5t-49 112.5q0 52 25 90.5t56 65.5q48 41 88 95.5t40 126.5q0 55 -25 101.5t-78.5 75t-143.5 28.5q-153 0 -233 -94t-80 -308 v-1023h-126z" />
<glyph unicode="&#xe0;" horiz-adv-x="1239" d="M135 303q0 103 53.5 172.5t152 108.5t233.5 52q208 22 299 43.5t91 71.5v6.5v7.5q0 105 -86 163.5t-245 58.5q-166 0 -258.5 -65.5t-92.5 -194.5h-125q0 118 59 202.5t166.5 129t251.5 44.5q129 0 232.5 -40t164.5 -116.5t61 -187.5v-43v-42v-481q0 -35 3 -67t9 -55 q9 -30 19.5 -47.5t16.5 -23.5h-128q-4 4 -13.5 22t-18.5 43q-8 26 -11 57.5t-3 76.5l20 -16q-33 -60 -95.5 -105.5t-149.5 -71t-193 -25.5q-125 0 -218 37.5t-144 110t-51 174.5zM263 309q0 -104 76.5 -159.5t227.5 -55.5q111 0 200.5 36.5t143 104.5t53.5 165v254l27 -47 q-59 -30 -161.5 -47.5t-222.5 -29.5q-169 -16 -256.5 -64t-87.5 -157zM363 1510h133l236 -238h-110z" />
<glyph unicode="&#xe1;" horiz-adv-x="1239" d="M135 303q0 103 53.5 172.5t152 108.5t233.5 52q208 22 299 43.5t91 71.5v6.5v7.5q0 105 -86 163.5t-245 58.5q-166 0 -258.5 -65.5t-92.5 -194.5h-125q0 118 59 202.5t166.5 129t251.5 44.5q129 0 232.5 -40t164.5 -116.5t61 -187.5v-43v-42v-481q0 -35 3 -67t9 -55 q9 -30 19.5 -47.5t16.5 -23.5h-128q-4 4 -13.5 22t-18.5 43q-8 26 -11 57.5t-3 76.5l20 -16q-33 -60 -95.5 -105.5t-149.5 -71t-193 -25.5q-125 0 -218 37.5t-144 110t-51 174.5zM263 309q0 -104 76.5 -159.5t227.5 -55.5q111 0 200.5 36.5t143 104.5t53.5 165v254l27 -47 q-59 -30 -161.5 -47.5t-222.5 -29.5q-169 -16 -256.5 -64t-87.5 -157zM545 1272l235 238h133l-259 -238h-109z" />
<glyph unicode="&#xe2;" horiz-adv-x="1239" d="M135 303q0 103 53.5 172.5t152 108.5t233.5 52q208 22 299 43.5t91 71.5v6.5v7.5q0 105 -86 163.5t-245 58.5q-166 0 -258.5 -65.5t-92.5 -194.5h-125q0 118 59 202.5t166.5 129t251.5 44.5q129 0 232.5 -40t164.5 -116.5t61 -187.5v-43v-42v-481q0 -35 3 -67t9 -55 q9 -30 19.5 -47.5t16.5 -23.5h-128q-4 4 -13.5 22t-18.5 43q-8 26 -11 57.5t-3 76.5l20 -16q-33 -60 -95.5 -105.5t-149.5 -71t-193 -25.5q-125 0 -218 37.5t-144 110t-51 174.5zM263 309q0 -104 76.5 -159.5t227.5 -55.5q111 0 200.5 36.5t143 104.5t53.5 165v254l27 -47 q-59 -30 -161.5 -47.5t-222.5 -29.5q-169 -16 -256.5 -64t-87.5 -157zM382 1272l207 238h102l207 -238h-101l-177 212h40l-179 -212h-99z" />
<glyph unicode="&#xe3;" horiz-adv-x="1239" d="M135 303q0 103 53.5 172.5t152 108.5t233.5 52q208 22 299 43.5t91 71.5v6.5v7.5q0 105 -86 163.5t-245 58.5q-166 0 -258.5 -65.5t-92.5 -194.5h-125q0 118 59 202.5t166.5 129t251.5 44.5q129 0 232.5 -40t164.5 -116.5t61 -187.5v-43v-42v-481q0 -35 3 -67t9 -55 q9 -30 19.5 -47.5t16.5 -23.5h-128q-4 4 -13.5 22t-18.5 43q-8 26 -11 57.5t-3 76.5l20 -16q-33 -60 -95.5 -105.5t-149.5 -71t-193 -25.5q-125 0 -218 37.5t-144 110t-51 174.5zM263 309q0 -104 76.5 -159.5t227.5 -55.5q111 0 200.5 36.5t143 104.5t53.5 165v254l27 -47 q-59 -30 -161.5 -47.5t-222.5 -29.5q-169 -16 -256.5 -64t-87.5 -157zM365 1371q2 29 20 62t53 58t88 25q45 0 75 -17t54 -37q25 -19 50 -33.5t54 -14.5q46 0 59 23.5t15 46.5h80q-1 -25 -16 -58t-46.5 -58.5t-88.5 -25.5q-44 0 -76 18t-59 39q-22 16 -45.5 30.5t-56.5 14.5 q-45 0 -61 -24.5t-18 -48.5h-81z" />
<glyph unicode="&#xe4;" horiz-adv-x="1239" d="M135 303q0 103 53.5 172.5t152 108.5t233.5 52q208 22 299 43.5t91 71.5v6.5v7.5q0 105 -86 163.5t-245 58.5q-166 0 -258.5 -65.5t-92.5 -194.5h-125q0 118 59 202.5t166.5 129t251.5 44.5q129 0 232.5 -40t164.5 -116.5t61 -187.5v-43v-42v-481q0 -35 3 -67t9 -55 q9 -30 19.5 -47.5t16.5 -23.5h-128q-4 4 -13.5 22t-18.5 43q-8 26 -11 57.5t-3 76.5l20 -16q-33 -60 -95.5 -105.5t-149.5 -71t-193 -25.5q-125 0 -218 37.5t-144 110t-51 174.5zM263 309q0 -104 76.5 -159.5t227.5 -55.5q111 0 200.5 36.5t143 104.5t53.5 165v254l27 -47 q-59 -30 -161.5 -47.5t-222.5 -29.5q-169 -16 -256.5 -64t-87.5 -157zM366 1442q0 36 27.5 58.5t63.5 22.5q38 0 64.5 -22.5t26.5 -58.5t-26.5 -58.5t-64.5 -22.5q-36 0 -63.5 22.5t-27.5 58.5zM734 1442q0 36 27 58.5t63 22.5q38 0 64.5 -22.5t26.5 -58.5t-26.5 -58.5 t-64.5 -22.5q-36 0 -63 22.5t-27 58.5z" />
<glyph unicode="&#xe5;" horiz-adv-x="1239" d="M135 303q0 103 53.5 172.5t152 108.5t233.5 52q208 22 299 43.5t91 71.5v6.5v7.5q0 105 -86 163.5t-245 58.5q-166 0 -258.5 -65.5t-92.5 -194.5h-125q0 118 59 202.5t166.5 129t251.5 44.5q129 0 232.5 -40t164.5 -116.5t61 -187.5v-43v-42v-481q0 -35 3 -67t9 -55 q9 -30 19.5 -47.5t16.5 -23.5h-128q-4 4 -13.5 22t-18.5 43q-8 26 -11 57.5t-3 76.5l20 -16q-33 -60 -95.5 -105.5t-149.5 -71t-193 -25.5q-125 0 -218 37.5t-144 110t-51 174.5zM263 309q0 -104 76.5 -159.5t227.5 -55.5q111 0 200.5 36.5t143 104.5t53.5 165v254l27 -47 q-59 -30 -161.5 -47.5t-222.5 -29.5q-169 -16 -256.5 -64t-87.5 -157zM456 1368q0 51 24.5 93.5t67 67t93.5 24.5t93 -24.5t67.5 -67t25.5 -92.5q0 -51 -25.5 -93.5t-67.5 -67.5t-93 -25t-93.5 25t-67 67.5t-24.5 92.5zM520 1368q0 -50 35.5 -85t85.5 -35t85 35t35 85 q0 51 -35 86t-85 35t-85.5 -35t-35.5 -86z" />
<glyph unicode="&#xe6;" horiz-adv-x="2207" d="M135 315q0 81 34.5 138.5t97 93.5t150 52.5t192.5 16.5q162 0 250 4t123 18t35 48v17v16q0 136 -94.5 205t-252.5 69q-110 0 -195 -30.5t-133 -90t-48 -145.5h-127q0 89 38 158.5t106 118.5t160 74t200 25q159 0 277.5 -65.5t157.5 -203.5q3 -5 5 -12.5t5 -14.5l-34 4 q66 134 192 213t289 79q160 0 276.5 -75t180 -201t63.5 -279q0 -14 -0.5 -31t-0.5 -27h-995l55 45q0 -7 0.5 -15t1.5 -15q7 -123 61.5 -216.5t147 -146.5t212.5 -53q94 0 163 25.5t114.5 65t70 83t29.5 78.5h124q-5 -55 -39 -117.5t-97 -118t-155.5 -90.5t-212.5 -35 q-116 0 -214.5 40t-170.5 114t-111 174l34 5q-35 -124 -116 -197t-185.5 -104t-215.5 -31q-201 0 -324.5 89t-123.5 245zM264 321q0 -111 93.5 -169.5t234.5 -58.5q78 0 153 19t137.5 68t99.5 139t37 231v24.5v24.5l24 -54q-57 -22 -161.5 -27.5t-244.5 -5.5 q-176 0 -274.5 -37t-98.5 -154zM1147 604h807v12t-2 15q-8 96 -57 179t-133 134t-198 51t-204 -50.5t-146 -138.5t-67 -202z" />
<glyph unicode="&#xe7;" horiz-adv-x="1282" d="M125 544q0 177 74 302t198 191t274 66q115 0 205 -35.5t152.5 -93.5t95 -126.5t32.5 -134.5v-2.5v-3.5h-126q0 5 -0.5 11.5t-1.5 12.5q-9 74 -58 131.5t-126 91t-174 33.5q-110 0 -204.5 -49.5t-153 -148t-58.5 -245.5q0 -146 58 -246t152.5 -151t205.5 -51 q121 0 199.5 40t118.5 103.5t42 132.5h126q0 -69 -31 -138.5t-92 -127t-151.5 -91.5t-210.5 -34q-150 0 -274 67t-198 193t-74 303zM493 -403l29 58q12 -8 47 -21.5t86 -13.5q62 0 106.5 31.5t44.5 88.5q0 47 -24 68.5t-63 21.5q-26 0 -54.5 -10.5t-43.5 -29.5l-63 21 l70 189h71l-64 -177l-20 7q9 22 47 37.5t77 15.5q35 0 65.5 -15t49 -47t18.5 -83q0 -59 -31 -98t-81.5 -58.5t-110.5 -19.5q-55 0 -98.5 12t-57.5 23z" />
<glyph unicode="&#xe8;" horiz-adv-x="1314" d="M125 541q0 166 70.5 292t193.5 198t280 72q160 0 276.5 -73t180 -197t63.5 -279q0 -13 -0.5 -33.5t-1.5 -30.5h-988v114h880l-24 -35v11v10q0 105 -45 196.5t-130.5 146.5t-208.5 55q-125 0 -220.5 -57t-148.5 -156.5t-53 -231.5q0 -133 52.5 -234t148 -157t222.5 -56 q93 0 162 23t114.5 61t69.5 80.5t29 80.5h125q-4 -60 -38 -123t-97 -117.5t-156 -87.5t-213 -33q-158 0 -280.5 71.5t-192.5 198t-70 291.5zM391 1510h133l236 -238h-110z" />
<glyph unicode="&#xe9;" horiz-adv-x="1314" d="M125 541q0 166 70.5 292t193.5 198t280 72q160 0 276.5 -73t180 -197t63.5 -279q0 -13 -0.5 -33.5t-1.5 -30.5h-988v114h880l-24 -35v11v10q0 105 -45 196.5t-130.5 146.5t-208.5 55q-125 0 -220.5 -57t-148.5 -156.5t-53 -231.5q0 -133 52.5 -234t148 -157t222.5 -56 q93 0 162 23t114.5 61t69.5 80.5t29 80.5h125q-4 -60 -38 -123t-97 -117.5t-156 -87.5t-213 -33q-158 0 -280.5 71.5t-192.5 198t-70 291.5zM573 1272l235 238h133l-259 -238h-109z" />
<glyph unicode="&#xea;" horiz-adv-x="1314" d="M125 541q0 166 70.5 292t193.5 198t280 72q160 0 276.5 -73t180 -197t63.5 -279q0 -13 -0.5 -33.5t-1.5 -30.5h-988v114h880l-24 -35v11v10q0 105 -45 196.5t-130.5 146.5t-208.5 55q-125 0 -220.5 -57t-148.5 -156.5t-53 -231.5q0 -133 52.5 -234t148 -157t222.5 -56 q93 0 162 23t114.5 61t69.5 80.5t29 80.5h125q-4 -60 -38 -123t-97 -117.5t-156 -87.5t-213 -33q-158 0 -280.5 71.5t-192.5 198t-70 291.5zM410 1272l207 238h102l207 -238h-101l-177 212h40l-179 -212h-99z" />
<glyph unicode="&#xeb;" horiz-adv-x="1314" d="M125 541q0 166 70.5 292t193.5 198t280 72q160 0 276.5 -73t180 -197t63.5 -279q0 -13 -0.5 -33.5t-1.5 -30.5h-988v114h880l-24 -35v11v10q0 105 -45 196.5t-130.5 146.5t-208.5 55q-125 0 -220.5 -57t-148.5 -156.5t-53 -231.5q0 -133 52.5 -234t148 -157t222.5 -56 q93 0 162 23t114.5 61t69.5 80.5t29 80.5h125q-4 -60 -38 -123t-97 -117.5t-156 -87.5t-213 -33q-158 0 -280.5 71.5t-192.5 198t-70 291.5zM393 1442q0 36 27.5 58.5t63.5 22.5q38 0 64.5 -22.5t26.5 -58.5t-26.5 -58.5t-64.5 -22.5q-36 0 -63.5 22.5t-27.5 58.5zM761 1442 q0 36 27 58.5t63 22.5q38 0 64.5 -22.5t26.5 -58.5t-26.5 -58.5t-64.5 -22.5q-36 0 -63 22.5t-27 58.5z" />
<glyph unicode="&#xec;" horiz-adv-x="491" d="M-31 1510h133l236 -238h-110zM183 0v1087h125v-1087h-125z" />
<glyph unicode="&#xed;" horiz-adv-x="491" d="M151 1272l235 238h133l-259 -238h-109zM183 0v1087h125v-1087h-125z" />
<glyph unicode="&#xee;" horiz-adv-x="491" d="M-12 1272l207 238h102l207 -238h-101l-177 212h40l-179 -212h-99zM183 0v1087h125v-1087h-125z" />
<glyph unicode="&#xef;" horiz-adv-x="491" d="M30 1442q0 36 27.5 58.5t63.5 22.5q37 0 64 -22.5t27 -58.5t-27 -58.5t-64 -22.5t-64 22.5t-27 58.5zM183 0v1087h125v-1087h-125zM278 1442q0 36 27 58.5t63 22.5q38 0 64.5 -22.5t26.5 -58.5t-26.5 -58.5t-64.5 -22.5q-36 0 -63 22.5t-27 58.5z" />
<glyph unicode="&#xf0;" horiz-adv-x="1378" d="M125 545q0 162 69.5 287.5t192.5 197.5t283 72t282.5 -72t192 -197.5t69.5 -287.5q0 -161 -69.5 -288.5t-192 -201t-282.5 -73.5t-283 73.5t-192.5 201t-69.5 288.5zM253 545q0 -130 53 -232t147.5 -160t216.5 -58q123 0 216.5 58t146.5 160t53 232q0 131 -53 231 t-146.5 156t-216.5 56q-122 0 -216.5 -56t-147.5 -156t-53 -231zM494 1519l78 77q135 -40 252.5 -116.5t204.5 -200t136 -304.5t49 -430h-120q0 246 -47 416.5t-129.5 281t-191.5 175.5t-232 101zM618 1343l284 239l96 -54l-283 -238z" />
<glyph unicode="&#xf1;" horiz-adv-x="1246" d="M174 0v1087h127v-1087h-127zM224 668q0 124 64 222t168 155.5t221 57.5q124 0 215 -46.5t140.5 -134t49.5 -212.5v-92.5v-89.5v-528h-126v541v79.5v58.5q0 91 -32 159t-98.5 106.5t-171.5 38.5q-92 0 -173 -45.5t-130.5 -123.5t-49.5 -175zM373 1371q2 29 20 62t53 58 t88 25q45 0 75 -17t54 -37q25 -19 50 -33.5t54 -14.5q46 0 59 23.5t15 46.5h80q-1 -25 -16 -58t-46.5 -58.5t-88.5 -25.5q-44 0 -76 18t-59 39q-22 16 -45.5 30.5t-56.5 14.5q-45 0 -61 -24.5t-18 -48.5h-81z" />
<glyph unicode="&#xf2;" horiz-adv-x="1339" d="M125 545q0 162 69.5 287.5t192.5 197.5t283 72t282.5 -72t192 -197.5t69.5 -287.5q0 -161 -69.5 -289t-192 -201t-282.5 -73t-283 73t-192.5 201t-69.5 289zM253 545q0 -130 53 -231.5t147.5 -159t216.5 -57.5q123 0 216.5 57.5t146.5 159t53 231.5q0 131 -53 230 t-146.5 155t-216.5 56q-122 0 -216.5 -56t-147.5 -155t-53 -230zM393 1510h133l236 -238h-110z" />
<glyph unicode="&#xf3;" horiz-adv-x="1339" d="M125 545q0 162 69.5 287.5t192.5 197.5t283 72t282.5 -72t192 -197.5t69.5 -287.5q0 -161 -69.5 -289t-192 -201t-282.5 -73t-283 73t-192.5 201t-69.5 289zM253 545q0 -130 53 -231.5t147.5 -159t216.5 -57.5q123 0 216.5 57.5t146.5 159t53 231.5q0 131 -53 230 t-146.5 155t-216.5 56q-122 0 -216.5 -56t-147.5 -155t-53 -230zM575 1272l235 238h133l-259 -238h-109z" />
<glyph unicode="&#xf4;" horiz-adv-x="1339" d="M125 545q0 162 69.5 287.5t192.5 197.5t283 72t282.5 -72t192 -197.5t69.5 -287.5q0 -161 -69.5 -289t-192 -201t-282.5 -73t-283 73t-192.5 201t-69.5 289zM253 545q0 -130 53 -231.5t147.5 -159t216.5 -57.5q123 0 216.5 57.5t146.5 159t53 231.5q0 131 -53 230 t-146.5 155t-216.5 56q-122 0 -216.5 -56t-147.5 -155t-53 -230zM412 1272l207 238h102l207 -238h-101l-177 212h40l-179 -212h-99z" />
<glyph unicode="&#xf5;" horiz-adv-x="1339" d="M125 545q0 162 69.5 287.5t192.5 197.5t283 72t282.5 -72t192 -197.5t69.5 -287.5q0 -161 -69.5 -289t-192 -201t-282.5 -73t-283 73t-192.5 201t-69.5 289zM253 545q0 -130 53 -231.5t147.5 -159t216.5 -57.5q123 0 216.5 57.5t146.5 159t53 231.5q0 131 -53 230 t-146.5 155t-216.5 56q-122 0 -216.5 -56t-147.5 -155t-53 -230zM396 1371q2 29 20 62t53 58t88 25q45 0 75 -17t54 -37q25 -19 50 -33.5t54 -14.5q46 0 59 23.5t15 46.5h80q-1 -25 -16 -58t-46.5 -58.5t-88.5 -25.5q-44 0 -76 18t-59 39q-22 16 -45.5 30.5t-56.5 14.5 q-45 0 -61 -24.5t-18 -48.5h-81z" />
<glyph unicode="&#xf6;" horiz-adv-x="1339" d="M125 545q0 162 69.5 287.5t192.5 197.5t283 72t282.5 -72t192 -197.5t69.5 -287.5q0 -161 -69.5 -289t-192 -201t-282.5 -73t-283 73t-192.5 201t-69.5 289zM253 545q0 -130 53 -231.5t147.5 -159t216.5 -57.5q123 0 216.5 57.5t146.5 159t53 231.5q0 131 -53 230 t-146.5 155t-216.5 56q-122 0 -216.5 -56t-147.5 -155t-53 -230zM395 1442q0 36 27.5 58.5t63.5 22.5q38 0 64.5 -22.5t26.5 -58.5t-26.5 -58.5t-64.5 -22.5q-36 0 -63.5 22.5t-27.5 58.5zM763 1442q0 36 27 58.5t63 22.5q38 0 64.5 -22.5t26.5 -58.5t-26.5 -58.5 t-64.5 -22.5q-36 0 -63 22.5t-27 58.5z" />
<glyph unicode="&#xf7;" d="M245 492v85h701v-85h-701zM515 202q0 32 22 52t55 20q32 0 53.5 -20.5t21.5 -51.5t-21.5 -51.5t-53.5 -20.5q-33 0 -55 20.5t-22 51.5zM515 873q0 32 22 52.5t55 20.5q32 0 53.5 -20.5t21.5 -52.5q0 -30 -21.5 -50.5t-53.5 -20.5q-33 0 -55 21t-22 50z" />
<glyph unicode="&#xf8;" horiz-adv-x="1339" d="M125 545q0 162 69.5 287.5t192.5 197.5t283 72t282.5 -72t192 -197.5t69.5 -287.5q0 -161 -69.5 -289t-192 -201t-282.5 -73t-283 73t-192.5 201t-69.5 289zM253 545q0 -130 53 -231.5t147.5 -159t216.5 -57.5q123 0 216.5 57.5t146.5 159t53 231.5q0 131 -53 230 t-146.5 155t-216.5 56q-122 0 -216.5 -56t-147.5 -155t-53 -230zM287 7l680 1119l71 -47l-679 -1119z" />
<glyph unicode="&#xf9;" horiz-adv-x="1218" d="M174 409v80.5v83.5v514h128v-501v-77v-73q0 -87 25.5 -164t88 -125.5t170.5 -48.5q101 0 178 55.5t120.5 141t43.5 175.5l78 -32q0 -82 -30.5 -162t-87.5 -147.5t-139.5 -107t-185.5 -39.5q-117 0 -193 40.5t-119 106t-60 140t-17 140.5zM324 1510h133l236 -238h-110z M928 0v1087h127v-1087h-127z" />
<glyph unicode="&#xfa;" horiz-adv-x="1218" d="M174 409v80.5v83.5v514h128v-501v-77v-73q0 -87 25.5 -164t88 -125.5t170.5 -48.5q101 0 178 55.5t120.5 141t43.5 175.5l78 -32q0 -82 -30.5 -162t-87.5 -147.5t-139.5 -107t-185.5 -39.5q-117 0 -193 40.5t-119 106t-60 140t-17 140.5zM506 1272l235 238h133l-259 -238 h-109zM928 0v1087h127v-1087h-127z" />
<glyph unicode="&#xfb;" horiz-adv-x="1218" d="M174 409v80.5v83.5v514h128v-501v-77v-73q0 -87 25.5 -164t88 -125.5t170.5 -48.5q101 0 178 55.5t120.5 141t43.5 175.5l78 -32q0 -82 -30.5 -162t-87.5 -147.5t-139.5 -107t-185.5 -39.5q-117 0 -193 40.5t-119 106t-60 140t-17 140.5zM343 1272l207 238h102l207 -238 h-101l-177 212h40l-179 -212h-99zM928 0v1087h127v-1087h-127z" />
<glyph unicode="&#xfc;" horiz-adv-x="1218" d="M174 409v80.5v83.5v514h128v-501v-77v-73q0 -87 25.5 -164t88 -125.5t170.5 -48.5q101 0 178 55.5t120.5 141t43.5 175.5l78 -32q0 -82 -30.5 -162t-87.5 -147.5t-139.5 -107t-185.5 -39.5q-117 0 -193 40.5t-119 106t-60 140t-17 140.5zM327 1442q0 36 27.5 58.5 t63.5 22.5q38 0 64.5 -22.5t26.5 -58.5t-26.5 -58.5t-64.5 -22.5q-36 0 -63.5 22.5t-27.5 58.5zM695 1442q0 36 27 58.5t63 22.5q38 0 64.5 -22.5t26.5 -58.5t-26.5 -58.5t-64.5 -22.5q-36 0 -63 22.5t-27 58.5zM928 0v1087h127v-1087h-127z" />
<glyph unicode="&#xfd;" horiz-adv-x="1050" d="M74 -330q13 -6 43 -10.5t58 -4.5q71 0 117.5 32t77 85.5t52.5 114.5l38 110l-382 1090h133l328 -973h-19l324 973h130l-414 -1193q-31 -89 -74 -169t-114.5 -130t-189.5 -50q-38 0 -69 5t-39 9v111zM424 1272l235 238h133l-259 -238h-109z" />
<glyph unicode="&#xfe;" horiz-adv-x="1275" d="M174 -447v2048h127v-2048h-127zM208 437v5v4l93 3v-4.5v-4.5q0 -92 49.5 -169.5t131.5 -124t176 -46.5q158 0 260 112.5t102 331.5q0 220 -101.5 331.5t-260.5 111.5q-94 0 -176 -46t-131.5 -123t-49.5 -170l-93 3q0 129 65 231.5t171 161.5t231 59q133 0 240.5 -65 t171 -190t63.5 -304q0 -181 -63 -307t-170.5 -191t-241.5 -65q-125 0 -231 60t-171 163.5t-65 232.5z" />
<glyph unicode="&#xff;" horiz-adv-x="1050" d="M74 -330q13 -6 43 -10.5t58 -4.5q71 0 117.5 32t77 85.5t52.5 114.5l38 110l-382 1090h133l328 -973h-19l324 973h130l-414 -1193q-31 -89 -74 -169t-114.5 -130t-189.5 -50q-38 0 -69 5t-39 9v111zM243 1442q0 36 27.5 58.5t63.5 22.5q38 0 64.5 -22.5t26.5 -58.5 t-26.5 -58.5t-64.5 -22.5q-36 0 -63.5 22.5t-27.5 58.5zM611 1442q0 36 27 58.5t63 22.5q38 0 64.5 -22.5t26.5 -58.5t-26.5 -58.5t-64.5 -22.5q-36 0 -63 22.5t-27 58.5z" />
<glyph unicode="&#x152;" horiz-adv-x="2098" d="M109 757q0 245 72.5 417t202.5 262.5t301 90.5q173 0 292.5 -84t170.5 -222v289h795v-111h-730l58 70v-697l-35 42h621v-113h-622l36 43v-703l-58 71h730v-112h-795v302q-51 -143 -170 -232t-293 -89q-172 0 -302 92t-202 266t-72 418zM237 757q0 -214 56 -361.5 t157 -224t235 -76.5q135 0 239.5 77t163 224.5t58.5 360.5q0 214 -59.5 360t-163.5 220.5t-238 74.5t-235 -74.5t-157 -220.5t-56 -360z" />
<glyph unicode="&#x153;" horiz-adv-x="2277" d="M125 545q0 162 69.5 287.5t192.5 197.5t283 72q119 0 217.5 -41.5t171.5 -116t109 -175.5l-34 -1q39 102 111 177t171.5 116.5t214.5 41.5q160 0 276.5 -73t180 -197t63.5 -279q0 -13 -0.5 -33.5t-1.5 -30.5h-992l54 47q0 -7 0.5 -15.5t1.5 -16.5q7 -128 61 -219.5 t145.5 -140.5t214.5 -49q96 0 165.5 23t114 61t68 80.5t27.5 80.5h126q-4 -60 -38.5 -123t-97.5 -117.5t-155.5 -87.5t-213.5 -33q-118 0 -216.5 41t-171 117t-109.5 178l34 -1q-38 -99 -110.5 -174t-170.5 -117t-216 -42q-160 0 -283 73t-192.5 201t-69.5 289zM253 545 q0 -130 53 -231.5t147.5 -159t216.5 -57.5q123 0 216.5 57.5t146.5 159t53 231.5q0 131 -53 230t-146.5 155t-216.5 56q-122 0 -216.5 -56t-147.5 -155t-53 -230zM1215 604h800v6.5v5.5q0 99 -45.5 184t-131.5 136.5t-205 51.5q-118 0 -208.5 -49t-145 -135t-64.5 -200z" />
<glyph unicode="&#x178;" horiz-adv-x="1138" d="M92 1510h134l370 -901h-54l368 901h136l-414 -984v-526h-127v526zM294 1686q0 36 27.5 58t63.5 22q38 0 64.5 -22.5t26.5 -57.5q0 -36 -26.5 -58.5t-64.5 -22.5q-36 0 -63.5 22.5t-27.5 58.5zM662 1686q0 36 27 58t63 22q38 0 64.5 -22.5t26.5 -57.5q0 -36 -26.5 -58.5 t-64.5 -22.5q-36 0 -63 22.5t-27 58.5z" />
<glyph unicode="&#x2c6;" horiz-adv-x="842" d="M169 1272l207 238h102l207 -238h-101l-177 212h40l-179 -212h-99z" />
<glyph unicode="&#x2dc;" horiz-adv-x="896" d="M178 1371q2 29 20 62t53 58t88 25q45 0 75 -17t54 -37q25 -19 50 -33.5t54 -14.5q46 0 59 23.5t15 46.5h80q-1 -25 -16 -58t-46.5 -58.5t-88.5 -25.5q-44 0 -76 18t-59 39q-22 16 -45.5 30.5t-56.5 14.5q-45 0 -61 -24.5t-18 -48.5h-81z" />
<glyph unicode="&#x2000;" horiz-adv-x="964" />
<glyph unicode="&#x2001;" horiz-adv-x="1929" />
<glyph unicode="&#x2002;" horiz-adv-x="964" />
<glyph unicode="&#x2003;" horiz-adv-x="1929" />
<glyph unicode="&#x2004;" horiz-adv-x="643" />
<glyph unicode="&#x2005;" horiz-adv-x="482" />
<glyph unicode="&#x2006;" horiz-adv-x="321" />
<glyph unicode="&#x2007;" horiz-adv-x="321" />
<glyph unicode="&#x2008;" horiz-adv-x="241" />
<glyph unicode="&#x2009;" horiz-adv-x="385" />
<glyph unicode="&#x200a;" horiz-adv-x="107" />
<glyph unicode="&#x2010;" horiz-adv-x="978" d="M95 539v82h703v-82h-703z" />
<glyph unicode="&#x2011;" horiz-adv-x="978" d="M95 539v82h703v-82h-703z" />
<glyph unicode="&#x2012;" horiz-adv-x="978" d="M95 539v82h703v-82h-703z" />
<glyph unicode="&#x2013;" horiz-adv-x="1081" d="M95 539v82h804v-82h-804z" />
<glyph unicode="&#x2014;" horiz-adv-x="1281" d="M95 539v82h1003v-82h-1003z" />
<glyph unicode="&#x2018;" horiz-adv-x="484" d="M132 1318q0 56 25.5 102t67.5 78.5t88 48.5l18 -40q-35 -12 -64 -35.5t-46.5 -55t-18.5 -64.5q4 8 20 15.5t39 7.5q45 0 71.5 -26t26.5 -69q0 -42 -28.5 -70.5t-82.5 -28.5q-56 0 -86 38.5t-30 98.5z" />
<glyph unicode="&#x2019;" horiz-adv-x="484" d="M125 1450q0 43 28.5 71t83.5 28q57 0 86 -39t29 -98q0 -56 -25.5 -101.5t-67 -78.5t-87.5 -49l-18 40q35 13 64 36.5t47 55t18 63.5q-4 -7 -20 -15t-40 -8q-45 0 -71.5 26.5t-26.5 68.5z" />
<glyph unicode="&#x201a;" horiz-adv-x="484" d="M125 69q0 43 28.5 71t83.5 28q57 0 86 -39t29 -98q0 -56 -25.5 -101.5t-67 -78.5t-87.5 -49l-18 40q35 13 64 36.5t47 55t18 63.5q-4 -7 -20 -15t-40 -8q-45 0 -71.5 26.5t-26.5 68.5z" />
<glyph unicode="&#x201c;" horiz-adv-x="716" d="M98 1318q0 56 25.5 102t67.5 78.5t88 48.5l18 -40q-35 -12 -64 -35.5t-46.5 -55t-18.5 -64.5q4 8 20 15.5t39 7.5q45 0 71.5 -26t26.5 -69q0 -42 -28.5 -70.5t-82.5 -28.5q-56 0 -86 38.5t-30 98.5zM392 1318q0 56 25.5 102t67.5 78.5t88 48.5l18 -40q-35 -12 -64 -35.5 t-46.5 -55t-18.5 -64.5q4 8 20 15.5t39 7.5q45 0 71.5 -26t26.5 -69q0 -42 -28.5 -70.5t-82.5 -28.5q-56 0 -86 38.5t-30 98.5z" />
<glyph unicode="&#x201d;" horiz-adv-x="716" d="M89 1436q0 42 28.5 70t82.5 28q58 0 87 -39t29 -98q0 -56 -26 -102t-67 -78t-88 -50l-17 41q35 11 63.5 35.5t46.5 55.5t19 65q-4 -8 -20 -16.5t-40 -8.5q-45 0 -71.5 27t-26.5 70zM383 1436q0 42 28.5 70t82.5 28q57 0 86 -39t29 -98q0 -56 -25.5 -102t-66.5 -78 t-88 -50l-17 41q35 11 64 35.5t46.5 55.5t17.5 65q-4 -8 -20 -16.5t-39 -8.5q-45 0 -71.5 27t-26.5 70z" />
<glyph unicode="&#x201e;" horiz-adv-x="716" d="M89 72q0 42 28.5 70t82.5 28q58 0 87 -39t29 -98q0 -56 -26 -102t-67 -78t-88 -50l-17 41q35 11 63.5 35.5t46.5 55.5t19 65q-4 -8 -20 -16.5t-40 -8.5q-45 0 -71.5 27t-26.5 70zM383 72q0 42 28.5 70t82.5 28q57 0 86 -39t29 -98q0 -56 -25.5 -102t-66.5 -78t-88 -50 l-17 41q35 11 64 35.5t46.5 55.5t17.5 65q-4 -8 -20 -16.5t-39 -8.5q-45 0 -71.5 27t-26.5 70z" />
<glyph unicode="&#x2022;" horiz-adv-x="738" d="M158 737q0 43 21 78t56 55.5t77 20.5q43 0 78 -20.5t56 -55.5t21 -78t-21 -78t-56 -55.5t-78 -20.5q-42 0 -77 20.5t-56 55.5t-21 78z" />
<glyph unicode="&#x2026;" horiz-adv-x="1245" d="M148 77q0 43 30 72.5t73 29.5t72.5 -29.5t29.5 -72.5t-29.5 -73t-72.5 -30t-73 30t-30 73zM516 77q0 43 30 72.5t73 29.5t72.5 -29.5t29.5 -72.5t-29.5 -73t-72.5 -30t-73 30t-30 73zM890 77q0 43 30 72.5t73 29.5t72.5 -29.5t29.5 -72.5t-29.5 -73t-72.5 -30t-73 30 t-30 73z" />
<glyph unicode="&#x202f;" horiz-adv-x="385" />
<glyph unicode="&#x2039;" horiz-adv-x="520" d="M46 579l345 327h84l-349 -327l349 -322h-84z" />
<glyph unicode="&#x203a;" horiz-adv-x="520" d="M46 257l349 322l-349 327h84l345 -327l-345 -322h-84z" />
<glyph unicode="&#x205f;" horiz-adv-x="482" />
<glyph unicode="&#x20ac;" horiz-adv-x="1180" d="M58 546v83h702v-83h-702zM58 869v82h702v-82h-702zM197 745q0 393 123.5 586.5t377.5 193.5q114 0 187.5 -37.5t119.5 -92.5t73 -108l-83 -61q-23 46 -58 92.5t-92 78t-147 31.5q-131 0 -217.5 -72t-129 -223t-42.5 -388q0 -236 42.5 -382.5t129 -214.5t217.5 -68 q82 0 136.5 29t90.5 74t58 91l83 -62q-28 -52 -73 -105t-116.5 -87.5t-178.5 -34.5q-254 0 -377.5 184t-123.5 576z" />
<glyph unicode="&#x2122;" horiz-adv-x="1353" d="M118 1456v54h438v-54h-187v-410h-63v410h-188zM647 1046v464h76l166 -382l167 382h71v-464h-58v359l-151 -359h-58l-154 359v-359h-59z" />
<glyph unicode="&#x25fc;" horiz-adv-x="1085" d="M0 0v1085h1085v-1085h-1085z" />
<glyph unicode="&#xfb03;" horiz-adv-x="2084" d="M52 976v111h242v151q0 61 12.5 117.5t39 104t67 82.5t96.5 54.5t128 19.5q44 0 72.5 -5.5t39.5 -11.5v-111q-13 4 -41 9t-60 5q-73 0 -118 -24.5t-69 -65.5t-32 -91.5t-8 -102.5v-131h321v-111h-321v-976h-127v976h-242zM849 976v111h242v151q0 61 12.5 117.5t39 104 t67 82.5t96.5 54.5t128 19.5q44 0 72.5 -5.5t39.5 -11.5v-111q-13 4 -41 9t-60 5q-73 0 -118 -24.5t-69 -65.5t-32 -91.5t-8 -102.5v-131h321v-111h-321v-976h-127v976h-242zM1742 1447q0 38 28.5 61t68.5 23q39 0 67.5 -23t28.5 -61q0 -39 -28.5 -62t-67.5 -23 q-40 0 -68.5 23t-28.5 62zM1775 0v1087h125v-1087h-125z" />
<glyph unicode="&#xfb04;" horiz-adv-x="2086" d="M52 976v111h242v151q0 61 12.5 117.5t39 104t67 82.5t96.5 54.5t128 19.5q44 0 72.5 -5.5t39.5 -11.5v-111q-13 4 -41 9t-60 5q-73 0 -118 -24.5t-69 -65.5t-32 -91.5t-8 -102.5v-131h321v-111h-321v-976h-127v976h-242zM849 976v111h242v151q0 61 12.5 117.5t39 104 t67 82.5t96.5 54.5t128 19.5q44 0 72.5 -5.5t39.5 -11.5v-111q-13 4 -41 9t-60 5q-73 0 -118 -24.5t-69 -65.5t-32 -91.5t-8 -102.5v-131h321v-111h-321v-976h-127v976h-242zM1781 0v1601h125v-1601h-125z" />
</font>
</defs>
</svg>
